<?xml version="1.0" standalone="no"?>
<!DOCTYPE svg PUBLIC "-//W3C//DTD SVG 1.1//EN" "http://www.w3.org/Graphics/SVG/1.1/DTD/svg11.dtd" >
<svg xmlns="http://www.w3.org/2000/svg">
<metadata></metadata>
<defs>
<font id="gurbaniakharregular" horiz-adv-x="65" >
<font-face units-per-em="2048" ascent="1638" descent="-410" />
<missing-glyph horiz-adv-x="716" />
<glyph horiz-adv-x="0" />
<glyph unicode="&#xd;" horiz-adv-x="716" />
<glyph unicode=" "  horiz-adv-x="716" />
<glyph unicode="&#x09;" horiz-adv-x="716" />
<glyph unicode="&#xa0;" horiz-adv-x="716" />
<glyph unicode="!" horiz-adv-x="987" d="M543 111q0 45 30.5 75.5t75.5 30.5t76 -30.5t31 -75.5t-31 -76t-76 -31t-75.5 31t-30.5 76zM571 1288q0 84 78 84q63 0 76 -51q2 -9 2 -107q0 -203 -41 -641l-20 -219h-33l-21 219q-39 417 -39 641v37q-2 49 -2 37z" />
<glyph unicode="&#x22;" horiz-adv-x="880" d="M143 1350q0 72 84 71q80 0 80 -71q0 -63 -74 -443h-16q-74 389 -74 443zM559 1350q0 72 84 71q80 0 80 -71q0 -63 -74 -443h-16q-74 389 -74 443z" />
<glyph unicode="#" horiz-adv-x="1587" d="M61 338v108h357l84 338h-287v109h313l76 295h111l-80 -295h344l76 295h108l-73 -295h323v-109h-354l-84 -338h287v-108h-320l-74 -291h-106l74 291h-340l-74 -291h-109l74 291h-326zM524 446h344l84 338h-344z" />
<glyph unicode="$" horiz-adv-x="1009" d="M6 950q-2 125 126 200q101 59 241 69v124h49v-124q162 -29 289 -187l-78 -61q-92 114 -211 147v-442q85 -43 127 -66q69 -38 119 -78q120 -96 123 -204q5 -155 -108 -243q-98 -76 -261 -85v-137h-49v137q-250 16 -348 225l96 35q63 -143 252 -166v492q-40 17 -140 63 q-108 51 -161 115q-63 74 -66 186zM121 940q0 -109 141 -184q14 -6 111 -56v418q-252 -22 -252 -178zM422 92q134 8 196 58q68 53 68 169q0 76 -78 138q-52 41 -186 104v-469z" />
<glyph unicode="%" horiz-adv-x="1667" d="M143 1155q0 125 90.5 212t215.5 87t214 -88t89 -213q0 -124 -90 -211.5t-213 -87.5q-126 0 -216 87.5t-90 213.5zM233 1155q-1 -90 61 -155.5t152 -63.5t151.5 63.5t64.5 151.5q2 90 -60 154.5t-151 64.5q-90 0 -153.5 -62.5t-64.5 -152.5zM330 -29l829 1450h96 l-811 -1450h-114zM907 373q0 125 89 213t214 88q124 0 214 -89.5t89 -213.5q-1 -123 -91.5 -211t-213.5 -88q-125 0 -213 88t-88 213zM993 373q-1 -89 62.5 -153t152.5 -64t151.5 63t63.5 152q1 90 -60 153t-153 64q-89 1 -152.5 -62.5t-64.5 -152.5z" />
<glyph unicode="&#x26;" horiz-adv-x="1167" d="M-33 82q0 41 32 69t73 29t69.5 -30t28.5 -72q0 -40 -31 -69t-71 -29q-41 0 -71 30.5t-30 71.5zM-10 1102v125h1214v-125h-200v-346h-584q-135 0 -184 -74q-37 -55 -37 -117q0 -78 53 -162q27 -33 90 -120q65 81 129 129q113 84 273 84q113 0 195 -65q88 -70 88 -179 q0 -126 -116 -197q-90 -55 -209 -55q-41 0 -79 8q-185 40 -308 139q-238 195 -237 422q0 91 41 156q47 75 92 104q39 27 131 52h541v221h-893zM430 203q158 -85 275 -86q89 -1 144.5 35.5t55.5 96.5q0 11 -2 23q-17 102 -166 103q-31 0 -57 -6q-164 -38 -250 -166z" />
<glyph unicode="'" horiz-adv-x="512" d="M164 1350q0 72 84 71q80 0 80 -71q0 -63 -74 -443h-16q-74 389 -74 443z" />
<glyph unicode="(" horiz-adv-x="790" d="M115 610q0 286 172 524q156 216 426 357l2 -14q-209 -144 -295 -269q-152 -217 -152 -581q0 -674 445 -936l-4 -15q-263 126 -428.5 384.5t-165.5 549.5z" />
<glyph unicode=")" horiz-adv-x="790" d="M80 1477l2 14q270 -141 426 -357q172 -238 172 -524q0 -291 -165.5 -549.5t-428.5 -384.5l-4 15q444 262 444 936q0 364 -151 581q-86 124 -295 269z" />
<glyph unicode="*" horiz-adv-x="821" d="M121 920q0 80 276 133q-166 -176 -237 -176q-39 0 -39 43zM121 1206q0 43 43 43q71 0 233 -176q-276 53 -276 133zM360 815q1 78 50 221q51 -145 51 -223q0 -76 -49 -76q-51 0 -52 78zM360 1317q0 78 52 78q49 0 49 -78q0 -77 -49 -227q-51 147 -52 227zM424 1055 q279 -59 278 -137q0 -43 -43 -44q-71 1 -235 181zM424 1071q160 180 233 180q43 0 43 -43q0 -74 -276 -137z" />
<glyph unicode="+" horiz-adv-x="1271" d="M141 551v125h428v428h125v-428h428v-125h-428v-428h-125v428h-428z" />
<glyph unicode="," horiz-adv-x="716" d="M174 98q-5 56 37 90q38 29 96 29q68 0 119 -37q78 -55 78 -176q0 -101 -101 -207q-83 -88 -167 -127l-19 43q108 67 152 148q20 37 24 78q2 20 6 63q-17 19 -73 21q-76 1 -99 8q-48 15 -53 67z" />
<glyph unicode="-" horiz-adv-x="1073" d="M135 551v125h791v-125h-791z" />
<glyph unicode="." horiz-adv-x="593" d="M166 102q0 55 38 95.5t93 40.5q54 0 93.5 -41t39.5 -95q0 -53 -40 -91t-93 -38t-92 38t-39 91z" />
<glyph unicode="/" horiz-adv-x="659" d="M-10 -31l559 1475h123l-559 -1475h-123z" />
<glyph unicode="0" horiz-adv-x="1310" d="M35 635q0 234 162.5 397.5t396.5 163.5q236 0 398.5 -163t162.5 -398q0 -233 -163.5 -396t-397.5 -163q-233 0 -396 163t-163 396zM158 635q0 -181 127.5 -308.5t308.5 -127.5q182 0 310 127t128 309q0 183 -127.5 310.5t-310.5 127.5q-182 0 -309 -128t-127 -310z" />
<glyph unicode="1" horiz-adv-x="1064" d="M59 961q-6 144 101 241q124 113 344 105q391 -15 391 -372q0 27 -14 -273q-1 -30 -11 -133q-6 -81 -6 -134q0 -193 68 -342q50 -82 80 -135q4 -7 4 -12q0 -12 -17 -12q-36 0 -71 26q-143 108 -178 418q-4 37 -5 84q0 156 27 346q-103 -122 -331 -122q-132 0 -242 77 q-133 93 -140 238zM182 969q3 -95 94 -152q81 -49 179 -49q91 0 188 43q132 58 127 160q-10 213 -287 213q-118 0 -201 -47q-102 -58 -100 -168z" />
<glyph unicode="2" horiz-adv-x="1224" d="M41 305q-8 123 111 123q37 0 79 -16q137 -52 209 -52q163 1 314 107q190 133 186 350q-6 326 -408 342q-151 6 -299 -33q-118 -31 -131 -30q-42 0 -52 32q-3 10 -3 23q0 66 180 104q124 27 287 27q552 0 549 -467q-3 -424 -512 -555q105 -51 186 -100q119 -73 119 -115 q0 -39 -45 -39q-22 0 -104 41q-39 18 -140 70q-66 35 -151 65q-73 6 -256 33q-115 20 -119 90z" />
<glyph unicode="3" horiz-adv-x="1241" d="M41 346q6 80 115 80q85 0 157 -55q123 -93 236 -99q106 -5 234 66q143 78 144 177q0 89 -65 137q-56 42 -149 42q-34 0 -228 -24q-97 -12 -166 -13q-179 0 -180 78q-1 52 89 78q60 16 130 16q53 0 160 -15t160 -15q254 0 266 174q7 97 -160 147q-104 31 -252 37 q-72 3 -329 -39q-76 -12 -92 -12q-70 0 -70 55q0 119 504 119q204 0 352 -74q170 -84 170 -235q0 -123 -109 -199q-34 -25 -34 -35q2 -13 37 -41q45 -36 63 -65q34 -53 31 -121q-9 -225 -361 -330q26 -16 78 -28q58 -14 98 -31q113 -46 113 -78q0 -41 -55 -41q-38 0 -137 29 q-38 11 -175 69q-117 50 -186 66q-7 3 -252 53q-145 30 -137 127z" />
<glyph unicode="4" horiz-adv-x="1138" d="M37 913q0 283 325 347v-123q-203 -57 -202 -232q0 -110 78 -184q93 -90 270 -90t270 90q78 75 78 184q0 174 -203 232v123q326 -63 326 -347q0 -94 -47 -170q-23 -37 -84 -100q-43 -45 -41 -68q4 -16 37 -49q42 -42 59 -75q31 -59 31 -144q0 -159 -140 -241 q-115 -68 -286 -68t-286 68q-140 83 -140 241q0 85 31 144q17 34 59 75q33 33 37 49q2 23 -41 68q-61 63 -84 100q-47 76 -47 170zM205 307q0 -184 303 -184t303 184q0 127 -98 172q-63 29 -205 29t-205 -29q-98 -45 -98 -172z" />
<glyph unicode="5" horiz-adv-x="1167" d="M12 1102v125h117q90 0 152 -110q53 -94 53 -191q0 -28 -4 -54q-39 -242 -146 -407q44 -38 101 -72q110 -66 207 -67q152 -4 350 135v766h123v-1227h-123v336q-47 -41 -129 -80q-105 -50 -189 -51q-201 -3 -346 104q-96 71 -115 127q-2 38 64 207q73 186 80 236q2 13 2 34 q0 79 -35 130q-41 58 -117 59h-45z" />
<glyph unicode="6" horiz-adv-x="1032" d="M31 881q0 140 125 215q105 63 254 63q68 0 170 -20q-102 126 -105 192q-13 253 266 256q41 0 109 -22q80 -29 80 -62q0 -18 -27 -18q-26 0 -78.5 10t-79.5 10q-60 0 -103 -37q-46 -39 -46 -98q0 -83 82 -184q19 -25 102 -72q59 -34 60 -67q0 -10 -6 -25q-19 -45 -70 -45 q-28 0 -92 20q-68 22 -97 27q-103 18 -167 18q-80 0 -134 -24q-123 -57 -118 -162q4 -109 74 -170q68 -59 178 -59q39 0 113.5 16t113.5 16q50 0 105 -15q75 -22 77 -58q5 -92 -184 -92q-38 0 -113 9t-112 9q-223 0 -250 -190q-2 -15 -2 -35q0 -164 215 -164h385 q91 0 94 -66q2 -42 -27 -53q-13 -4 -67 -4h-447q-125 0 -203 96q-72 89 -71 217q0 84 55 168t55 88l-56 113q-58 118 -58 199z" />
<glyph unicode="7" horiz-adv-x="1267" d="M29 20q2 25 110 73q68 29 135 57q154 67 338 178q211 128 289 221q42 51 71 138q28 83 27 153q0 150 -127 243q-96 72 -249 68q-65 -2 -138 -37q-83 -40 -102 -93q-16 -44 -29 -83q-23 -49 -61 -53q-84 -8 -84 96q0 129 164 218q142 78 280 73q73 -2 160 -29 q101 -31 150 -72q154 -133 153 -317q-3 -312 -246 -494q-165 -123 -477 -260q-228 -100 -330 -100q-37 0 -34 20z" />
<glyph unicode="8" horiz-adv-x="1316" d="M27 973q0 39 24 94q38 85 117 127q66 35 104 35q43 0 43 -45v-135h834v-123h-834q-2 -33 -2 -76q0 -244 72 -395q142 -300 559 -332q22 -2 58 2q43 4 59 4q86 0 86 -63q0 -66 -205 -66q-232 0 -411 109q-184 113 -273 321q-70 164 -70 395q0 63 5 101h-123q-43 0 -43 47z " />
<glyph unicode="9" horiz-adv-x="1302" d="M20 971q0 38 21.5 91.5t48.5 79.5q23 22 78 50q68 35 106 35q41 0 41 -43v-142h514q-46 57 -57 76q-41 69 -45 129q-8 125 68 193q70 62 196 63q54 1 127 -30q62 -27 63 -55q0 -19 -28 -19q-26 0 -78.5 10t-79.5 10q-59 0 -103 -36q-46 -39 -46 -97q0 -81 84 -184 q24 -29 98 -64q54 -25 57 -71q3 -51 -141 -52q-32 4 -108 5h-521q-2 -37 -2 -86q0 -232 72 -379q147 -302 559 -332q22 -2 58 2q43 4 59 4q86 0 86 -63q0 -66 -205 -66q-234 0 -412 108q-183 112 -274 322q-68 156 -68 381q0 61 5 109h-127q-45 0 -46 51z" />
<glyph unicode=":" horiz-adv-x="819" d="M334 115q0 48 34 81t83 33q47 0 80.5 -33.5t33.5 -80.5q0 -48 -33 -82.5t-81 -34.5q-49 0 -83 34t-34 83zM334 975q0 48 34 81.5t83 33.5q47 0 80.5 -34t33.5 -81q0 -48 -33 -82.5t-81 -34.5q-49 0 -83 34t-34 83z" />
<glyph unicode=";" horiz-adv-x="716" d="M154 98q-5 56 36 90q38 29 97 29q68 0 119 -37q77 -55 77 -176q0 -101 -100 -207q-83 -88 -168 -127l-18 43q108 67 151 148q20 37 25 78q2 20 6 63q-17 19 -74 21q-76 1 -98 8q-48 15 -53 67zM231 975q0 48 34.5 81.5t82.5 33.5q47 0 81 -34t34 -81q0 -48 -33.5 -82.5 t-81.5 -34.5q-49 0 -83 34t-34 83z" />
<glyph unicode="&#x3c;" horiz-adv-x="2220" d="M23 961q0 352 399 339q218 -6 303 -116q62 -81 62 -245q0 -25 -1 -50q-1 -66 -10 -227q-23 -257 -22 -267q0 -193 61 -342l74 -135q4 -7 4 -12q0 -12 -16 -12q-36 0 -72 26q-147 110 -182 418q-4 36 -5 76q0 121 29 325q-137 -93 -286 -93q-141 0 -238 85 q-100 90 -100 230zM147 969q3 -97 67 -152q61 -51 159 -51q82 0 168 43q116 57 116 162q3 207 -256 207t-254 -209zM887 1102v125h90q12 224 173 378t384 154q87 0 172 -24q150 -43 356 -176q5 -3 127 -95q6 -6 17 -12l-2 -158q-3 3 -15 13q-43 36 -147 114 q-198 141 -371 193q-76 23 -137 22q-182 0 -311 -153q-101 -120 -123 -256h1024v-125h-78q-55 -170 -117 -260q-76 -111 -215 -187q245 -133 244 -336q-1 -131 -80 -217q-93 -102 -272 -102q-296 0 -458 231q-132 190 -161 508q-12 138 -10 363h-90zM1100 1102 q0 -246 16 -402h221q191 2 254 25q133 47 197 123q74 88 135 254h-823zM1135 578q36 -135 92 -230q139 -231 370 -225q102 2 170 53q73 54 66 158q-6 87 -107 176q-90 79 -168 79q-12 0 -22 -1q-74 -10 -401 -10z" />
<glyph unicode="=" horiz-adv-x="1273" d="M115 295v123h979v-123h-979zM115 811v123h979v-123h-979z" />
<glyph unicode="&#x3e;" horiz-adv-x="1210" d="M-16 1458l12 -8q134 -90 172 -86q85 8 281 174q80 70 241 205q196 156 418 155q202 0 362 -117t226 -308q33 -96 33 -127q0 -55 -43 -56q-36 0 -68 70q-16 32 -53 110q-62 139 -184 222q-124 84 -273 84q-178 0 -377 -168q-66 -50 -231 -185q-70 -59 -174 -141 q-87 -57 -158 -57q-85 0 -172 69q-3 1 -10 9q-2 78 -2 155z" />
<glyph unicode="?" horiz-adv-x="1228" d="M328 1130q0 309 342 310q77 0 159.5 -38.5t131.5 -96.5q70 -82 69 -224q0 -63 -76 -163q-7 -9 -123 -144q-80 -92 -108 -231q-4 -86 -23 -258h-32q3 111 -4 196q-11 133 -11 142q16 114 56 176q8 13 118 159q66 87 66 148q0 295 -236 295q-78 0 -165 -51 q-94 -54 -95 -119q0 -18 60.5 -83.5t60.5 -103.5q0 -37 -49 -61q-29 -14 -53 -14q-88 0 -88 161zM569 61q0 52 36.5 87.5t88.5 35.5q51 0 87 -35.5t36 -87.5t-35.5 -88t-87.5 -36q-53 0 -89 35.5t-36 88.5z" />
<glyph unicode="@" d="M-627 -51q31 -74 103 -158q184 -219 364 -258q31 -10 31 49q0 66 -86 107q-111 35 -125 47q-18 10 -102 76q-90 74 -133 137h-52z" />
<glyph unicode="A" horiz-adv-x="1464" d="M-14 1102v125h137q49 0 100 -76q43 -63 60 -127q25 -94 30 -238q22 28 74 88q35 43 110 125q133 133 193 134q10 0 17 -5q88 -38 141 -204q39 -123 49 -258q32 27 121 88q25 14 158 67v406h380v-125h-256v-1102h-124v692q-100 -42 -140 -64t-137 -120q-40 -41 -61 -121 q-10 -45 -33 -135q-35 -133 -135 -133q-25 0 -54 8q-65 18 -65 76q0 45 37 114q14 27 119 152q65 77 65 177q0 18 -4 56q-8 77 -33 158q-23 76 -26 86q-12 35 -25 47q-59 -37 -117.5 -104t-115.5 -135q-66 -78 -106.5 -139t-57.5 -158q-15 -89 -45 -123q-41 -47 -99 -47 q-47 0 -78.5 27t-31.5 73t30 93.5t95 146.5q30 46 30 133v6q0 51 -4 104q-17 231 -131 232h-67z" />
<glyph unicode="B" horiz-adv-x="1134" d="M-18 1102v125h1232v-125h-215v-16q0 -83 -38 -197q-38 -112 -142 -215q75 -89 86 -107q53 -82 53 -184q0 -196 -142 -299q-119 -85 -299 -85q-16 0 -32 1q-125 5 -271 72q-126 57 -126 97q0 30 37 30q26 0 86 -21q84 -29 125 -37q89 -18 229 -18q109 0 185.5 75.5 t76.5 184.5q0 117 -86 197q-89 -83 -149 -117q-65 -37 -182 -62q-39 -8 -70 -8q-99 0 -175 58q-80 61 -89 157q-2 18 -2 36q0 137 107 205q89 56 235 56q180 0 317 -141q82 88 111 166q33 88 33 172h-895zM199 610q15 -92 139 -92q33 0 78 6q104 14 241 144 q-120 114 -254 114h-2q-204 0 -204 -140q0 -20 2 -32z" />
<glyph unicode="C" horiz-adv-x="1165" d="M-10 1102v125h1265v-125h-254v-387h-706q-86 0 -86 -99q0 -25 31 -135q17 -29 66 -29h3q11 0 25 1q57 14 231 14q317 0 424 -61q80 -46 80 -162v-6q-2 -127 -80 -175q-104 -63 -424 -63q-342 0 -440 59q-74 45 -74 183q0 63 29 100q15 20 51 43q27 17 23 33 q-31 60 -50 117q-16 50 -16 99q0 18 2 36q7 68 66.5 118t128.5 50h594v264h-889zM176 238q0 -71 92 -95q65 -16 230 -18v217q-175 -2 -230 -14q-92 -22 -92 -90zM621 125q166 2 231 18q94 24 94 95q0 69 -94 90q-54 12 -231 14v-217z" />
<glyph unicode="D" horiz-adv-x="1132" d="M-25 1102v125h1252v-125h-258v-1102h-123v313q-171 -116 -349 -116h-3q-188 0 -406 247q61 155 96 371q8 52 8 108q0 84 -18 179h-199zM225 477q120 -155 289 -155h2q133 0 330 114v666h-549q17 -101 17 -192q0 -57 -7 -109q-13 -109 -82 -324z" />
<glyph unicode="E" horiz-adv-x="1304" d="M-14 1102v125h110q14 258 160 418q155 170 412 170q3 0 25 1q27 1 50 1h101q385 0 385 -93q0 -38 -217 -38q-96 2 -289 4q-287 -1 -408 -172q-63 -90 -96 -291h1131v-125h-164q-52 -168 -115 -260q-79 -118 -217 -187q223 -132 223 -334q0 -132 -80 -219 q-93 -102 -272 -102q-296 0 -458 231q-132 190 -161 508q-10 118 -10 300v63h-110zM219 1102q0 -246 17 -402h231q202 2 264 25q133 47 197 123q74 88 135 254h-844zM254 578q36 -135 92 -230q135 -225 359 -225h12q102 2 170 53q66 49 66 138q0 10 -1 20q-6 90 -96 177 q-81 78 -159 78q-11 0 -21 -1q-74 -10 -422 -10z" />
<glyph unicode="F" horiz-adv-x="1167" d="M-6 1102v125h1212v-125h-202v-451h-685q0 -160 70 -282q34 -59 90 -129q131 209 318 209q38 0 84 -11q79 -16 125 -84q42 -61 41 -133v-16q-7 -109 -88 -166q-73 -51 -185 -51q-279 0 -475 280q-98 140 -102 383h-111q-59 0 -59 62q0 86 59 137q87 76 190 76q43 0 43 -29 v-123h562v328h-887zM553 178q83 -48 111 -57q39 -13 98 -13q15 0 31 1q133 6 133 108q0 13 -2 27q-14 94 -142 94q-32 0 -55 -6q-70 -18 -174 -154z" />
<glyph unicode="G" horiz-adv-x="1335" d="M-12 1102v125h139q37 0 85 -43q42 -37 60 -76q33 -68 33 -145v-17q-4 -99 -137 -483q141 -141 215 -141q88 0 143.5 78.5t55.5 217.5q0 102 -31 226q-8 33 -8 67q0 58 31 140q38 96 88 96q38 0 67 -96q25 -79 25 -129q0 -48 -11 -80q-51 -159 -51 -273q0 -239 185 -239h2 q73 0 108 19q44 24 62 87v791h333v-125h-211v-1102h-122v270q-66 -59 -191 -63h-6q-102 0 -221 125q-78 -70 -115 -92q-68 -41 -133 -41q-118 0 -236 112q-90 87 -112 146q12 22 98 260q49 135 49 227q0 143 -119 158h-75z" />
<glyph unicode="H" d="M-686 -438q113 -129 237 -129q106 0 185 86q61 70 61 215v217h-110v-219q0 -74 -27 -125q-31 -70 -94 -72h-7q-87 0 -177 96q-68 70 -68 140q0 47 51 61q84 22 84 43v2q-4 25 -72 25q-155 0 -155 -144q0 -92 92 -196z" />
<glyph unicode="I" horiz-adv-x="585" d="M-424 1413v19q0 86 33 178q29 80 111 129q78 47 167 47q237 0 322 -137q57 -93 70 -256q2 -28 2 -166h335v-125h-335v-1102h-123v1102h-176v125h176v30q0 180 -23 254q-48 158 -213 158q-185 0 -213 -162q-4 -22 -12 -94h-121z" />
<glyph unicode="J" horiz-adv-x="1167" d="M-14 1102v125h1243v-125h-217q-32 -123 -78 -195q-58 -89 -164 -141q74 -26 135 -84q89 -85 89 -196q0 -10 -1 -21q-24 -305 -391 -305q-35 0 -65 4q4 -9 53 -68q43 -51 43 -76q0 -24 -23 -24h-2q-34 0 -94 43q-51 37 -70 59q-85 107 -208 107h-13h-6q-67 0 -67 82 q0 45 24 75q33 41 80 41q39 0 70 -38q62 -79 118 -95q16 -4 112 -4h42q105 1 179 47q86 53 93 152v13q0 95 -92 167q-81 62 -161 63q-10 0 -21 -1q-66 -7 -283 -66q-90 -25 -94 -25q-29 0 -80 37q-23 16 -22 31q0 31 92 57q13 4 164 41q-136 73 -195 160q-30 44 -72 160 h-118zM227 1102q50 -99 111 -152q135 -116 252 -116h2q123 0 213 114q57 73 84 154h-662z" />
<glyph unicode="K" horiz-adv-x="1126" d="M-12 1102v125h174q111 0 153 -154q16 -58 17 -196h508v350h325v-125h-202v-1102h-123v334q-125 -115 -318 -115q-293 0 -440 217l70 187q59 165 59 303q0 74 -21 121q-16 29 -32 55h-170zM221 459q123 -117 348 -117q66 0 154 47q71 38 117 84v281h-523 q-18 -125 -96 -295z" />
<glyph unicode="L" horiz-adv-x="1372" d="M-39 72q0 41 25 67q25 35 73 35q96 0 97 -94q0 -39 -25 -72t-72 -33q-42 0 -70 28t-28 69zM-16 1102v125h1421v-125h-281l-149 -279q153 -25 246.5 -140.5t93.5 -270.5q0 -175 -122.5 -296.5t-297.5 -121.5v119q125 0 212 87t87 212q0 126 -76 213q-79 92 -203 92 l-176 -326h-16l-176 326q-124 0 -204 -92q-77 -87 -77 -213q0 -124 87.5 -211.5t211.5 -87.5v-119q-174 0 -296 122t-122 296q0 155 95.5 271t246.5 140l-149 279h-356zM487 1102l236 -488h18l236 488h-490z" />
<glyph unicode="M" d="M-580 1554q0 -27 7 -53q8 -41 59 -102q41 -47 57 -47q8 0 8 8q0 10 -28 74q-29 61 -31 88q-1 7 -1 13q0 67 58 112q57 45 138 45q78 0 135 -45q60 -44 60 -111q0 -7 -1 -14q-2 -27 -31 -88q-28 -61 -28 -73q0 -9 8 -9q14 0 55 47q53 59 62 102q6 27 6 53q0 74 -55 146 q-63 82 -211 82q-147 0 -211 -82q-55 -72 -56 -146z" />
<glyph unicode="N" horiz-adv-x="251" d="M-25 1102v125h322v-125h-322zM-20 1507q0 53 39 92t92 39t92 -38.5t39 -92.5q0 -53 -39 -92t-92 -39t-92 39t-39 92z" />
<glyph unicode="O" d="M-1024 1853q-1 -8 -1 -16q0 -11 2 -23q3 -20 7 -40q18 -90 117 -136q68 -33 151 -33q15 0 31 1h9q58 0 65 -52q2 -39 7 -67.5t15 -48.5q2 -10 13.5 -22.5t25 -25t27.5 -20.5t25 -8q6 0 10 4q0 4 -19 59q-19 48 -19 73q0 5 1 9q2 31 15.5 57.5t34 46t46 31t53.5 11.5 q129 -2 152 -144q-8 -47 -18.5 -81.5t-20.5 -59.5q4 -4 10 -4q16 0 49 29q29 29 37 47q20 43 21 96q0 92 -57.5 151.5t-149.5 67.5q-11 2 -25 2q-57 0 -153 -28q-80 -23 -172 -23q-135 0 -213 78q-6 6 -31 63q-20 51 -29 51q-16 -4 -16 -45z" />
<glyph unicode="P" horiz-adv-x="1167" d="M-6 1102v125h1204v-125h-194v-346h-584q-135 0 -184 -74q-37 -55 -37 -117q0 -78 53 -162q27 -33 90 -120q65 81 129 129q113 84 273 84q113 0 195 -65q88 -70 88 -179q0 -126 -116 -197q-90 -55 -209 -55q-41 0 -79 8q-185 40 -308 139q-237 194 -237 420q0 93 41 158 q47 75 92 104q39 27 131 52h541v221h-889zM430 203q158 -85 275 -86h5q86 -1 140 35q56 36 55 97q0 11 -2 23q-17 102 -166 103q-31 0 -57 -6q-164 -38 -250 -166z" />
<glyph unicode="Q" horiz-adv-x="1142" d="M-9 1102v125h1189v-125h-201v-1102h-123v272q-171 -118 -359 -118h-3q-188 0 -406 247q51 130 96 414q6 37 6 82q0 87 -22 205h-177zM225 434q121 -155 291 -155q141 0 340 116v256h-575q-23 -90 -56 -217zM291 1102q16 -83 22 -166q1 -17 1 -35q0 -56 -11 -127h553v328 h-565z" />
<glyph unicode="R" d="M-625 -223q0 -47 31 -78q41 -41 86 -41q72 0 139 88q63 -16 140 -92q29 -29 48 -49.5t34 -34.5q41 -43 63 -43q4 0 8 2q12 2 13 20q-1 39 -95 158q-68 86 -127 125q35 61 56 119h-105q-18 -55 -31 -72q-61 25 -124 25q-135 0 -136 -127z" />
<glyph unicode="S" horiz-adv-x="1167" d="M-55 1102v125h1315v-125h-256v-1102h-125v530h-519q-20 -85 -71 -305q-38 -166 -121 -166q-27 0 -53 15q-57 32 -58 98q0 49 37 127q80 170 90 195q45 111 49 202q1 14 1 27q0 84 -21 180q-16 66 -47 199h-221zM291 1102q69 -222 69 -441v-6h519v447h-588zM459 117v9 q-1 34 25 63q30 32 71 36h10q33 -1 61 -25q32 -28 36 -69q0 -5 1 -10q0 -35 -25 -63q-28 -32 -69 -35q-5 -1 -10 -1q-35 0 -63 25q-32 28 -37 70z" />
<glyph unicode="T" horiz-adv-x="1167" d="M-6 1102v125h1205v-125h-564v-213q195 -28 317 -155q129 -133 129 -327q0 -204 -154 -314q-137 -97 -352 -97t-354 97q-158 110 -158 312v5q2 193 132 324q124 127 317 155v213h-518zM186 402q0 -285 380 -285h3q166 0 267 58q125 73 125 226v2q-1 155 -121 262 q-116 101 -273 101q-159 0 -269 -102q-112 -102 -112 -262z" />
<glyph unicode="U" horiz-adv-x="63" d="M-973 -166v-125q181 -76 337 -76h15q86 2 171 21.5t178 54.5v123q-178 -76 -349 -76q-160 0 -352 78zM-973 -453v-125q179 -75 333 -75h19q86 2 171 21.5t178 53.5v123q-176 -75 -345 -75h-4q-160 0 -352 77z" />
<glyph unicode="V" horiz-adv-x="1183" d="M-12 1102v125h1234v-125h-163q-12 -73 -68 -174q-44 -81 -151 -166q69 -23 121 -82q63 -72 63 -159v-15q-13 -230 -254 -338q10 -10 68 -66q49 -48 49 -75q0 -33 -29 -33t-108 63q-95 77 -113 84q-108 -8 -147 -8h-13q-153 11 -231 51q84 -123 84 -153q0 -33 -27 -33 q-52 0 -160 156q-26 37 -55 84q-29 43 -31 75v8q0 47 43 48q14 0 33 -4q215 -111 422 -111q145 0 231 59q116 80 116 190q0 167 -253 167q-67 0 -151 -8q-106 -10 -136 -15q-25 -1 -48 -1q-195 0 -195 84q0 88 229 88q22 0 45 -1q61 -2 123 -12q73 -12 100 -12 q102 0 211 114q69 73 111 195h-950z" />
<glyph unicode="W" horiz-adv-x="532" d="M-25 1104v123h584v-123h-270v-625h-123v625h-191zM109 1507q0 53 39 92t92 39t92 -38.5t39 -92.5q0 -53 -39 -92t-92 -39t-92 39t-39 92z" />
<glyph unicode="X" horiz-adv-x="1273" d="M-12 1102v125h1322v-125h-200v-1102h-121v545h-264v-201q0 -110 -61 -175q-63 -69 -172 -69q-106 0 -256 95.5t-201 193.5q41 125 100 350q18 109 19 187q0 43 -23 176h-143zM168 424q70 -85 139 -129q127 -80 191 -80q105 0 104 180l-2 273h389v434h-735 q23 -123 22 -180q0 -81 -12 -170q-16 -120 -96 -328z" />
<glyph unicode="Y" d="M-1001 1466h34t41 2q33 2 62 2q58 0 98 -8q104 -20 326 -121q155 -72 190 -86q2 2 2 7q0 22 -39 102q-53 109 -139 217q-240 299 -510 299q-43 0 -70 -6q-96 -18 -96 -72q0 -45 41 -51q17 -3 49 -3t80 3q13 1 25 1q61 0 110 -17q123 -41 240 -138q92 -74 166 -165 q58 -69 58 -90q0 -2 -1 -3q-47 29 -81 51.5t-56 36.5q-66 41 -132.5 73t-135.5 54q-113 38 -212 38q-28 0 -55 -3q-120 -12 -120 -68q0 -54 125 -55z" />
<glyph unicode="Z" horiz-adv-x="1368" d="M-33 74q0 41 27 67q25 35 74 35q41 0 67.5 -26.5t26.5 -67.5q0 -39 -24.5 -72t-69.5 -33q-42 0 -71.5 28t-29.5 69zM-33 1102v125h1499v-125h-262v-1102h-123v1102h-254v-815q0 -287 -252 -287q-143 0 -253 106q-100 96 -142 248q-14 52 -14 105q0 129 85 215 q91 92 228 92h226v336h-738zM287 461q0 -65 32 -135q39 -84 102 -139q72 -64 152 -64h2q109 0 130 110v412h-164q-254 0 -254 -184z" />
<glyph unicode="[" horiz-adv-x="1228" d="M580 -20v1247h122v-1247h-122z" />
<glyph unicode="\" horiz-adv-x="1130" d="M-16 1102v125h1187v-125h-204v-350h-607q-49 0 -104 -31q-63 -36 -63 -82q0 -49 47 -96q43 -43 77 -43h641v-123h-479q27 -96 58 -141q45 -66 137 -107q65 -29 143 -29q63 0 131 19l-22 -80q-113 -45 -195 -45q-25 0 -43 6q-162 38 -237 147q-51 74 -91 187q-7 20 -77 45 q-43 15 -93 33q-121 76 -120 209q0 197 266 251q-43 31 -123 119q-27 39 -43 111h-186zM293 1102q46 -101 117 -156q97 -74 170 -74h264v230h-551z" />
<glyph unicode="]" horiz-adv-x="1167" d="M352 -20v1247h123v-1247h-123zM709 -20v1247h122v-1247h-122z" />
<glyph unicode="^" horiz-adv-x="1105" d="M-18 1102v125h153q57 0 103 -50q38 -43 55 -104q12 -44 12 -196h516v350h318v-125h-197v-1102h-121v334q-126 -77 -313 -74q-124 2 -248 49q-147 56 -197 148q3 22 62 184q53 150 57 213q8 120 -18 193q-20 55 -41 55h-141zM29 131q0 41 24 68q25 35 74 34q96 0 96 -94 q0 -39 -24.5 -70.5t-71.5 -31.5q-37 0 -68 20q-31 29 -30 74zM190 483q91 -83 306 -96q20 -1 40 -1q150 0 285 71v297h-532q-5 -30 -49 -148q-40 -109 -50 -123z" />
<glyph unicode="_" horiz-adv-x="1187" d="M0 -8h1188v-119h-1188v119z" />
<glyph unicode="`" d="M-567 1665q-1 -88 26 -139q37 -74 110 -122t155 -48q78 0 151 49q72 49 109 121q27 51 26 139q2 76 -10 76q-10 0 -25 -55q-14 -41 -26 -72t-27 -53q-68 -102 -203 -103q-131 0 -198 103q-31 47 -53 125q-18 55 -25 55q-12 0 -10 -76z" />
<glyph unicode="a" horiz-adv-x="1292" d="M-14 1102v125h120q0 257 148 398q145 138 405 138q258 0 396.5 -139.5t138.5 -396.5h141v-125h-139q-52 -168 -115 -260q-79 -118 -217 -187q223 -132 223 -334q0 -132 -79 -219q-93 -102 -273 -102q-296 0 -457 231q-132 190 -161 508q-11 127 -11 329v34h-120z M229 1102q0 -246 17 -402h231q202 2 264 25q133 47 197 123q74 88 135 254h-844zM229 1227h842q-10 175 -59 256q-96 157 -355 157q-255 0 -360 -157q-68 -101 -68 -256zM264 578q36 -135 92 -230q135 -225 359 -225h12q102 2 170 53q67 49 67 140q0 9 -1 18q-6 90 -97 177 q-81 78 -158 78q-12 0 -22 -1q-74 -10 -422 -10z" />
<glyph unicode="b" horiz-adv-x="1110" d="M-6 1102v125h1163v-125h-211v-1102h-125v225q-49 -63 -184 -106q-104 -33 -146 -33h-6q-195 16 -321 129q-74 66 -105 145q62 135 240 271l76 57q-79 63 -101 84q-59 57 -92 115q-61 110 -76 215h-112zM190 352q164 -141 314 -141q92 0 203 61q100 55 114 95v247h-340 q-109 -49 -291 -262zM231 1102q35 -128 88 -197q65 -83 185 -168h317v365h-590z" />
<glyph unicode="c" horiz-adv-x="1198" d="M-8 1102v125h1245v-125h-203v-760q0 -121 -82 -217q-106 -125 -305 -125q-30 0 -55 2q-256 20 -356 313q-23 66 -33 258h-109q-68 0 -67 76q0 78 51 131q74 78 180 78q68 0 68 -57v-105h583v406h-917zM326 573q4 -89 6 -110q6 -60 22 -109q74 -214 228 -227q23 -2 57 -2 q112 0 184 47q86 54 86 160v241h-583z" />
<glyph unicode="d" horiz-adv-x="1167" d="M-8 1102v125h1214v-125h-202v-541h-676q0 -197 59 -299q86 -147 301 -147q73 0 195.5 46t136.5 46q16 0 16 -12q0 -45 -92 -113q-113 -82 -260 -82q-316 0 -424 225q-55 116 -55 334h-135q-43 0 -43 49q0 40 25 95.5t55.5 82.5t78.5 52q55 28 94 28h3q43 0 43 -41v-141 h557v418h-891z" />
<glyph unicode="e" horiz-adv-x="1159" d="M-4 1102v125h1208v-125h-209v-465q-33 0 -110 2q-87 2 -113 2q-175 -2 -262 -26.5t-188 -98.5q-104 -76 -148 -151q17 -36 113 -105q67 -48 121 -78q145 -78 260 -79q8 0 16 1q76 4 147 50q40 26 99 86q43 45 55 45t12 -23q0 -61 -84 -151q-94 -101 -196 -109 q-11 -1 -25 -1q-53 0 -133 13q-153 26 -262 92q-207 127 -256 254q20 85 141 195q104 95 180 139q-59 53 -159 170q-76 115 -97 238h-110zM229 1102q50 -190 189 -289q55 -39 131 -53h325v342h-645z" />
<glyph unicode="f" horiz-adv-x="1167" d="M-16 1102v125h1216v-125h-184q-90 -203 -252 -328q106 -43 176 -131q75 -95 75 -205q0 -230 -178 -343q-147 -93 -393 -95h-5q-136 0 -232 50q-122 63 -131 190q-1 12 -1 23q0 102 73 159q74 57 196 57q65 0 133 -14q173 -36 350 -215q11 18 31 55q30 61 31 129v6 q0 117 -109 187q-103 67 -257 67h-5q-87 0 -164 -20q-54 -14 -102 -15q-152 0 -152 93q0 54 66 85q49 23 108 23h5q41 0 119.5 -21.5t119.5 -21.5q217 0 373 285h-907zM199 251q0 -69 109 -104q74 -23 160 -23h7q108 0 262 56q-85 81 -133 111q-73 45 -162 57q-29 4 -71 4 q-172 0 -172 -101z" />
<glyph unicode="g" horiz-adv-x="1249" d="M-8 1102v125h1298v-125h-205v-1102h-122v1102h-265v-815q0 -287 -252 -287q-143 0 -253 106q-100 96 -142 248q-14 52 -14 105q0 129 85 215q91 92 228 92h225v336h-583zM158 461q0 -65 32 -135q39 -84 102 -139q72 -64 152 -64h2q109 0 129 110v412h-163 q-254 0 -254 -184z" />
<glyph unicode="h" horiz-adv-x="1101" d="M-14 1102v125h1153v-125h-201v-791q0 -138 -75 -222q-79 -89 -216 -89q-101 0 -217 61q-108 57 -186 146q-143 161 -144 325q0 79 64 148q73 78 186 78h94v-123h-77q-144 0 -144 -114v-9q6 -108 127 -236q144 -153 287 -153h2q178 0 178 184v795h-831z" />
<glyph unicode="i" horiz-adv-x="585" d="M-4 1102v125h233q0 138 2 166q12 163 70 256q85 137 322 137q89 0 167 -47q83 -49 111 -129q33 -91 33 -178v-19h-121q-2 33 -12 94q-27 162 -213 162q-165 0 -213 -158q-23 -75 -23 -255v-29h299v-125h-299v-1102h-123v1102h-233z" />
<glyph unicode="j" horiz-adv-x="1167" d="M-12 1102v125h1269v-125h-253v-1102h-123v530h-547v-530h-125v530h-100q-72 0 -72 72q0 95 67.5 160t163.5 65q66 0 66 -53v-121h547v449h-893z" />
<glyph unicode="k" horiz-adv-x="1249" d="M-16 1102v125h1302v-125h-176l-12 -123q-8 -80 -33 -170q-48 -173 -133 -299q31 -67 94 -221q55 -135 102 -289h-129q-22 51 -77 219q-25 72 -66 180q-82 -142 -184 -206q-138 -86 -260 -87q-36 0 -62 5q-131 22 -216 130t-85 242q0 171 121 278q109 95 267 95h22 q200 -9 399 -233q36 59 90 231q35 111 39 248h-1003zM170 483q0 -99 62.5 -171t160.5 -85q10 -1 21 -1q49 0 111 26q70 29 116 72q74 68 150 192q-135 135 -140 137q-104 82 -239 82q-103 0 -172.5 -73.5t-69.5 -178.5z" />
<glyph unicode="l" horiz-adv-x="1263" d="M-10 1102v125h1302v-125h-280l-150 -279q153 -25 246.5 -140.5t93.5 -270.5q0 -175 -122.5 -296.5t-297.5 -121.5v119q125 0 212 87t87 212q0 126 -75 213q-79 92 -203 92l-176 -326h-17l-176 326q-124 0 -204 -92q-76 -86 -76 -210q0 -127 87.5 -214.5t211.5 -87.5v-119 q-174 0 -296 122t-122 296q0 155 95 271t247 140l-150 279h-237zM375 1102l235 -488h19l235 488h-489z" />
<glyph unicode="m" horiz-adv-x="1167" d="M-6 1102v125h170q148 0 190 -228q11 -62 11 -153v-15q-2 -77 -7 -172h523v568h327v-125h-204v-1102h-123v537h-535q-25 -210 -51 -312q-43 -164 -131 -164q-102 0 -103 109q0 51 23 102q39 82 111 248q43 108 43 285q0 154 -15 215q-19 82 -82 82h-147z" />
<glyph unicode="n" horiz-adv-x="1130" d="M-12 1102v125h1188v-125h-574v-279q166 -30 288 -149q132 -129 132 -291q0 -168 -82 -260q-57 -65 -201 -127v125q91 46 125.5 103t34.5 159q0 130 -115 225q-110 90 -241 90q-132 0 -241 -90q-116 -96 -116 -225q0 -102 34.5 -159t125.5 -103v-125q-143 62 -201 127 q-82 92 -82 260q0 162 130 291q122 120 286 149v279h-491z" />
<glyph unicode="o" d="M-948 1780q0 -66 26 -121q31 -70 88 -78q156 -6 232 -6q72 2 106 2q33 0 25 0q88 0 121 -29q6 -8 28 -65q40 -107 63 -107h1q12 2 12 43q0 23 -3 48.5t-7 54.5q-12 74 -29 96q-39 57 -157 63q-61 2 -107.5 3.5t-75.5 1.5h-102q-88 4 -100 10q-37 20 -54 73 q-8 27 -12 46.5t-8 31.5q-16 53 -41 54q-7 0 -7 -62q0 -24 1 -59z" />
<glyph unicode="p" horiz-adv-x="1165" d="M-12 1102v125h178q90 0 151 -110q53 -94 54 -191q0 -28 -4 -54q-39 -242 -146 -407q44 -38 101 -72q110 -66 206 -67h9q149 0 342 135v766h332v-125h-210v-1102h-122v336q-47 -41 -129 -80q-105 -50 -189 -51h-11q-194 0 -335 104q-96 71 -115 127q-2 38 64 207 q73 186 80 236q2 13 2 34q0 79 -35 130q-41 58 -117 59h-106z" />
<glyph unicode="q" horiz-adv-x="1167" d="M-12 1102v125h1229v-125h-207q-24 -152 -60 -232q-57 -128 -172 -219q94 -53 137 -96q92 -92 93 -219q0 -154 -98 -244q-95 -86 -251 -86q-67 0 -137 14q-91 18 -252 82q-194 77 -194 117q0 23 39 23q47 0 178 -47q144 -51 182 -58q111 -16 172 -16q237 0 237 214 q0 10 -1 21q-6 127 -138 188q-99 46 -243 46q-105 0 -199 -23q-17 -4 -43 -4q-145 0 -145 101q0 90 118 90q55 0 164 -26t164 -26q155 0 246 156q42 73 80 244h-899z" />
<glyph unicode="r" horiz-adv-x="1101" d="M-29 1102v125h1223v-125h-256v-787q0 -133 -51 -215q-65 -102 -193 -102q-151 0 -315 152q-138 127 -221 286q-45 87 -45 170q0 205 247 205h455v291h-844zM229 610q0 -116 173 -303.5t288 -187.5q62 0 96 53q29 45 29 111v405h-440q-145 0 -146 -78z" />
<glyph unicode="s" horiz-adv-x="1167" d="M-4 1102v125h1215v-125h-207v-1102h-125v530h-519q-20 -85 -71 -305q-38 -166 -121 -166q-27 0 -53 15q-57 32 -58 98q0 49 37 127q80 170 90 195q45 111 49 202q1 14 1 27q0 84 -21 180q-16 66 -47 199h-170zM291 1102q69 -222 69 -441v-6h519v447h-588z" />
<glyph unicode="t" horiz-adv-x="1126" d="M-8 1102v125h1175v-125h-204v-373q-29 2 -60 2q-82 0 -172 -12q-170 -23 -262 -80q-180 -113 -309 -287q33 -43 133 -106q215 -137 354 -137q51 0 113 18q46 13 127 80q73 59 92 59q18 0 18 -22q0 -54 -94 -133q-81 -67 -145 -91q-70 -26 -137 -26h-5q-119 0 -350 121 q-54 29 -121 84q-96 80 -114 147q11 69 125 191q100 108 209 184q105 74 247 98q10 2 228 33v250h-848z" />
<glyph unicode="u" d="M-973 -166v-125q181 -76 337 -76h15q86 2 171 21.5t178 54.5v123q-178 -76 -349 -76q-160 0 -352 78z" />
<glyph unicode="v" horiz-adv-x="1126" d="M-18 1102v125h1187v-125h-206v-350h-621q-59 0 -110 -27q-60 -32 -60 -86q0 -45 41.5 -90t85.5 -45h639v-123h-479q24 -123 104 -195.5t203 -72.5q70 0 164 22l-25 -96q-113 -45 -194 -45q-18 0 -43 6q-245 61 -332 338q-9 31 -76 55q-92 34 -125 62q-68 57 -84 168 q-2 13 -2 26q0 81 75 147q86 76 201 76h3h514v230h-860z" />
<glyph unicode="w" horiz-adv-x="532" d="M-25 1102v125h584v-125h-270v-623h-123v623h-191z" />
<glyph unicode="x" horiz-adv-x="1202" d="M-4 1102v125h1251v-125h-827q65 -74 338 -174q166 -60 282 -84v-115q-139 23 -231 62v-383h-29q-61 115 -133 153q-129 70 -198 70q-139 0 -275 -287q71 -105 227 -174q122 -53 252 -59h4q44 0 199 41q33 12 98 36q81 29 115 29q12 0 18 -6q1 -3 2 -5q0 -19 -55 -63 q-66 -51 -164 -94q-114 -49 -208 -49q-204 0 -371 86q-195 100 -250 258q57 134 141 248q120 160 263 160h10q133 -6 233 -90v167q-98 39 -256 115q-123 78 -176 158h-260z" />
<glyph unicode="y" d="M-1036 1704q0 -37 32 -62q244 -10 357 -69q117 -63 219 -156q61 -55 123 -127q36 -42 48 -42q2 0 3 1q2 2 2 6q0 53 -123 199q-55 66 -98 109.5t-76 66.5q-176 127 -358 146q-10 2 -31 2q-98 0 -98 -74z" />
<glyph unicode="z" horiz-adv-x="1175" d="M-25 1102v125h1291v-125h-254v-1102h-123v530h-547v-530h-125v530h-100q-72 0 -72 72q0 95 67.5 160t163.5 65q66 0 66 -53v-121h547v449h-914zM525.5 194.5q27.5 28.5 70.5 28.5q44 0 74 -26t30 -70q0 -39 -26.5 -71.5t-75.5 -32.5q-39 0 -66 22q-34 29 -34 75 t27.5 74.5z" />
<glyph unicode="{" horiz-adv-x="731" d="M106 594q164 52 164 248v387q0 153 99 219q82 55 264 63v-24q-242 -82 -242 -246v-369q0 -112 -2 -124q-11 -74 -99 -113q-45 -20 -155 -41q106 -20 155 -42q88 -40 99 -114q2 -13 2 -127v-366q0 -166 242 -246v-25q-172 8 -254 58q-109 66 -109 223v389q0 100 -34 157 q-38 60 -130 93z" />
<glyph unicode="|" horiz-adv-x="1136" d="M-18 1102v125h1194v-125h-953v-225h473q179 0 256 -107q61 -85 62 -170q0 -56 -27 -111q-49 -100 -156 -186q106 -102 187 -303h-131q-68 137 -144 236q-51 -46 -96 -76q-118 -76 -231 -80q-136 -4 -230 61q-103 74 -100 207q3 108 71 172q67 61 175 68q150 8 260 -56 q72 -41 170 -141l83 99q42 50 42 114q0 77 -62 117q-50 33 -176 33h-549v348h-118zM205 332q0 -67 67 -101q63 -32 154 -26q128 7 233 117q-145 145 -282 145q-153 0 -170 -111q-2 -12 -2 -24z" />
<glyph unicode="}" horiz-adv-x="780" d="M98 -301q240 80 240 246v366q0 113 2 127q11 73 100 114q48 22 156 42q-108 20 -156 41q-90 40 -100 113q-2 14 -2 124v369q0 166 -240 246v24q182 -8 264 -63q98 -67 99 -219v-387q0 -101 34 -157q38 -60 130 -91q-92 -33 -129 -93q-35 -55 -35 -157v-389 q0 -158 -109 -223q-82 -49 -254 -58v25z" />
<glyph unicode="~" horiz-adv-x="409" d="M-31 1665q-1 76 6 76q8 0 31 -55q10 -41 41 -125q49 -102 172 -103q129 0 178 103q16 60 41 125q20 55 31 55q7 0 6 -76q-1 -59 -14 -141q-63 -168 -238 -168q-174 0 -239 168q-13 34 -15 141zM-25 1102v125h474v-125h-474z" />
<glyph unicode="&#xa1;" horiz-adv-x="1863" d="M25 580q0 100 74 153q67 47 171 43q225 -9 228 -237q1 -50 -8 -145q-7 -98 -7 -144q0 -193 72 -281q0 -8 -4 -10q-13 0 -35 16q-82 63 -102 242q-8 72 14 248q-119 -70 -203 -70q-73 0 -136.5 56.5t-63.5 128.5zM84 586q1 -59 55 -97q49 -33 107 -32q51 0 108 28 q77 38 74 101q-5 125 -168 125q-69 0 -118 -28q-59 -34 -58 -97zM618 637v65h68q33 168 98 248q79 96 230 111q45 4 182 -2q186 263 383 516q187 242 465 242q255 0 362 -228q46 -97 48 -198q1 -92 -21 -93q-13 0 -35 80q-10 38 -39 135q-104 238 -317 238q-119 0 -246 -78 q-115 -71 -192 -176l-373 -504q-102 0 -221 -2q-199 -3 -254 -289h637v-65h-74q-48 -169 -193 -262q128 -76 127 -191q-1 -89 -58 -140.5t-148 -51.5q-312 0 -357 438q-10 104 -2 207h-70zM754 524q2 -34 6 -125q251 -4 295 13q77 29 116 75q50 59 86 150h-503v-113z M774 336q63 -284 270 -279q58 1 103 33q51 37 47 100q-4 57 -62.5 108t-115.5 44q-46 -6 -242 -6z" />
<glyph unicode="&#xa2;" horiz-adv-x="1081" d="M0 700q0 198 121 342q134 160 364 183v161h72v-161q192 -11 303 -95v-100q-117 72 -303 82v-827q180 10 299 82v-105q-106 -74 -299 -82v-172h-72v174q-215 19 -350 161.5t-135 356.5zM123 698q0 -153 90 -264q99 -122 272 -149v827q-163 -26 -262.5 -138t-99.5 -276z " />
<glyph unicode="&#xa3;" horiz-adv-x="1208" d="M0 96q37 22 104 60q16 9 76 22q53 12 70 25q103 81 127 174q10 39 18 155h-250v56h256q2 34 -18 110q-49 180 -49 248q0 140 99 214q90 66 235 63q178 -4 293 -140q20 -24 81 -149h-112q-26 60 -58 98q-75 88 -190 88q-242 0 -242 -176q0 -40 24 -130q19 -66 36 -132 q20 -87 8 -94h254v-51h-248q-10 -96 -25 -175q-18 -103 -122 -202q139 -62 256 -63q183 0 333 93l54 -81q-146 -92 -359 -109q-82 -6 -219 31t-205 37q-86 0 -170 -70z" />
<glyph unicode="&#xa4;" horiz-adv-x="444" d="M-76 1665q-1 76 10 76q7 0 25 -55q26 -83 53 -125q68 -102 199 -103q135 0 203 103q28 42 53 125q17 55 25 55q11 0 10 -76q-1 -88 -27 -139q-37 -73 -107 -121q-74 -49 -153 -49q-81 0 -154 48t-110 122q-26 52 -27 139zM-25 1102v125h514v-125h-514z" />
<glyph unicode="&#xa5;" horiz-adv-x="1138" d="M25 1409h159l385 -643l385 643h160l-409 -641h348v-78h-412v-221h412v-78h-412v-391h-143v391h-410v78h410v221h-410v78h346z" />
<glyph unicode="&#xa7;" d="M-766 -512v-76q98 -35 186 -53t166 -16q158 4 348 69v76q-178 -70 -348 -70q-164 0 -352 70zM-766 -674v-76q203 -72 352 -65q170 2 348 65v76q-184 -65 -348 -65q-160 0 -352 65zM-745 -205q0 -121 79 -201q109 -109 234 -108q109 0 188 74l-4 -4q66 76 66 223v180h-111 v-182q0 -80 -31 -135q-33 -57 -90 -60q-100 -4 -184 72q-61 51 -61 158q0 41 45 49q88 16 84 39q-2 20 -76 20q-53 0 -82 -16q-57 -33 -57 -109z" />
<glyph unicode="&#xa8;" d="M-817 -494v-81q98 -35 186 -53.5t166 -16.5q158 4 348 70v81q-178 -69 -348 -69q-164 0 -352 69zM-817 -668v-82q203 -72 352 -65q170 2 348 65v82q-184 -65 -348 -65q-160 0 -352 65z" />
<glyph unicode="&#xaa;" horiz-adv-x="1236" />
<glyph unicode="&#xad;" horiz-adv-x="1073" d="M135 551v125h791v-125h-791z" />
<glyph unicode="&#xae;" d="M-1024 -141q0 -47 31 -78q41 -41 86 -41q72 0 139 88q63 -16 139 -92q29 -29 48.5 -49.5t33.5 -34.5q49 -51 72 -41q12 2 12 20q0 39 -94 158q-68 86 -127 125q35 61 55 119h-104q-18 -55 -31 -72q-61 25 -125 25q-135 0 -135 -127z" />
<glyph unicode="&#xb0;" horiz-adv-x="757" d="M59 1221q0 128 94 219.5t222 91.5t221 -92.5t94 -220.5q1 -129 -92.5 -220t-222.5 -92q-130 -1 -223 91.5t-93 222.5zM70 692v109h612v-109h-612zM154 1219q-2 -89 64 -157t155 -69q90 -1 156.5 66t68.5 158q2 93 -64 157.5t-159 65.5q-92 1 -155.5 -64t-65.5 -157z" />
<glyph unicode="&#xb1;" horiz-adv-x="1253" d="M61 20v105h1063v-105h-1063zM152 690v121h380v379h121v-379h381v-121h-381v-379h-121v379h-380z" />
<glyph unicode="&#xb4;" horiz-adv-x="63" d="M-649 -281q18 -98 86 -170q74 -74 172 -73q88 0 135 67q39 59 47 135q10 68 -14 72q-16 2 -43 -67q-14 -23 -24.5 -39.5t-20.5 -26.5q-27 -33 -92 -33q-37 0 -58 15q-98 63 -114 147q-4 29 -7.5 58.5t-3.5 64.5q0 20 1 39.5t3 42.5h-57q-33 -102 -10 -232z" />
<glyph unicode="&#xb5;" d="M-907 1554q0 -27 6 -53q8 -41 59 -102q41 -47 58 -47q8 0 8 8q0 10 -29 74q-29 61 -31 88q-6 76 58 125q57 45 137 45q78 0 135 -45q66 -49 60 -125q-2 -27 -31 -88q-29 -63 -29 -74q0 -8 8 -8q14 0 56 47q53 59 61 102q6 27 6 53q0 74 -55 146q-63 82 -211 82 q-147 0 -211 -82q-55 -72 -55 -146z" />
<glyph unicode="&#xb6;" horiz-adv-x="741" d="M0 750q0 109 72 206q94 129 264 129h274v-69h-67v-1356h-70v1356h-129v-1356h-70v721q-132 24 -205 130q-69 99 -69 239z" />
<glyph unicode="&#xb7;" horiz-adv-x="716" d="M207 594q0 55 38 95t93 40q54 0 93.5 -40.5t39.5 -94.5q0 -61 -47 -98q-39 -31 -86 -31q-53 0 -92 38t-39 91z" />
<glyph unicode="&#xbf;" horiz-adv-x="1363" d="M231 297l330 332l-330 329l86 84l330 -329l330 329l84 -84l-330 -329l330 -332l-84 -84l-330 330l-330 -330z" />
<glyph unicode="&#xc5;" horiz-adv-x="2220" d="M23 352q0 352 399 340q218 -6 303 -117q62 -81 62 -244q0 -25 -1 -50q-1 -67 -10 -228q-23 -257 -22 -266q0 -193 61 -342l74 -135q4 -7 4 -12q0 -12 -16 -13q-36 0 -72 27q-147 110 -182 418q-4 36 -5 75q0 121 29 326q-137 -93 -286 -93q-141 0 -238 85 q-100 90 -100 229zM147 360q3 -97 67 -151q61 -51 159 -51q82 0 168 43q116 57 116 161q3 207 -256 207t-254 -209zM887 387v125h90q12 224 173 378t384 154q88 0 172 -24q120 -35 356 -186q49 -38 144 -121l-2 -127q-44 35 -162 121q-200 141 -371 192q-76 23 -137 23 q-182 0 -311 -154q-101 -120 -123 -256h1024v-125h-78q-55 -170 -117 -260q-76 -111 -215 -186q245 -133 244 -336q-1 -131 -80 -217q-93 -102 -272 -103q-296 0 -458 232q-132 190 -161 508q-12 138 -10 362h-90zM1100 387q0 -246 16 -401h221q191 2 254 24q133 47 197 123 q74 88 135 254h-823zM1135 -137q36 -135 92 -230q139 -231 370 -225q102 2 170 53q73 54 66 158q-6 87 -107 176q-90 79 -168 79q-12 0 -22 -1q-74 -10 -401 -10z" />
<glyph unicode="&#xc6;" horiz-adv-x="2048" d="M-16 711q0 -61 2 -129q1 -2 10 -9q105 -70 172 -69q157 0 317 198q117 147 437 551q413 520 827 521q301 0 511 -210t210 -511q0 -101 8 -156q12 -84 74 -82q39 2 45 39v66q1 39 0 67q-2 44 -2 68q0 351 -247.5 597t-598.5 246q-286 0 -543 -192q-176 -132 -403 -406 q-105 -135 -383 -483q-152 -187 -252 -188q-72 -1 -184 82z" />
<glyph unicode="&#xc7;" horiz-adv-x="2162" d="M63 778q0 211 97 365q92 146 254 209q-120 -148 -164 -234q-55 -108 -55 -217q0 -121 71 -330q116 -336 764 -688v203q-33 33 -112 94q-31 18 -91 43q20 45 45 115q-201 55 -329.5 218.5t-128.5 369.5q0 203 131 366q127 159 321 215q-16 47 -30 78q77 55 157 129 q24 22 49 66q34 57 43 69q20 -47 82 -135q80 -74 158 -129q-14 -31 -31 -78q201 -58 328 -215q131 -162 131 -366q0 -208 -134 -372q-131 -160 -335 -216q10 -31 49 -115q-61 -26 -90 -43q-42 -26 -113 -94v-203q648 352 764 688q72 209 72 330q0 110 -55 217 q-44 85 -164 234q162 -62 254 -209q96 -154 96 -365q0 -104 -22 -207q-45 -205 -144 -344q-74 -97 -219 -290q-94 -126 -106 -234l-234 215q-23 -7 -65 -22q-73 -31 -144 -86q95 -38 185 -95q121 -77 120 -159q0 -29 -22.5 -50.5t-50.5 -21.5q-63 0 -64 65q0 29 25 64 q-41 36 -96 74q-14 10 -134 55v-238q55 -51 56 -88q0 -43 -32 -73.5t-75 -30.5t-69.5 30t-26.5 74q0 37 55 88v238q-53 -18 -133 -55l-96 -74q25 -35 24 -64q0 -66 -63 -65q-29 0 -51.5 21.5t-22.5 50.5q0 83 121 159q89 56 184 95q-96 78 -209 108l-233 -215 q-12 108 -106 234q-75 95 -220 290q-98 139 -143 344q-23 102 -23 207zM504 926q0 -181 113 -322q111 -136 288 -184q96 265 92 448q-4 227 -102 553q-170 -47 -279 -180q-113 -139 -112 -315zM1163 868q-4 -189 90 -448q178 47 293 184q119 141 119 322q0 176 -115 314 q-111 131 -284 181q-99 -327 -103 -553z" />
<glyph unicode="&#xcd;" d="M-741 -315q6 -82 69 -115q18 -10 32.5 -16.5t25.5 -10.5q39 -18 49 -35q6 -14 12 -30.5t14 -32.5q33 -68 45 -80q51 -70 160 -70q57 0 88 41q10 23 15 43q-53 -14 -56 -14q-66 -12 -100 8q-66 37 -82 148h244v86h-334q-27 0 -62 22q-35 29 -34 54q0 73 100 73h344v185 h-84v-101h-299q-63 0 -107 -47t-40 -108z" />
<glyph unicode="&#xce;" horiz-adv-x="1112" d="M-20 1102v125h1171v-125h-262v-1102h-125v545h-268q0 -267 -17 -350q-22 -111 -174 -111q-57 0 -104 20q-8 4 -150 95q4 29 23 123q15 -11 82 -60q90 -66 139 -65q78 0 78 155v316h391v434h-784z" />
<glyph unicode="&#xcf;" d="M-858 -449q0 -29 57 -73q119 -100 242 -101q113 0 113 134v110h161v-323h90v643h-90v-230h-239v-180q0 -74 -51 -74q-33 0 -109 43q-43 23 -82 62q10 31 19.5 55.5t13.5 42.5q20 43 26 100q10 98 -2 162h-90q8 -31 8 -76q0 -20 -2 -42.5t-6 -45.5q-10 -35 -18 -59.5 t-14 -40.5q-33 -88 -27 -107z" />
<glyph unicode="&#xd2;" horiz-adv-x="716" d="M119 -20v1247h123v-1247h-123zM457 -20v1247h123v-1247h-123z" />
<glyph unicode="&#xd3;" horiz-adv-x="2719" d="M12 -184q48 45 115 45q83 0 181 -67q78 -52 137 -123h368q-160 63 -208 267q33 37 73 36q82 0 185 -137q73 -97 113 -191q181 -38 441 -163q-79 147 -233 446q-99 -32 -178 -31q-134 0 -223 95q72 87 174 87q79 0 183 -50q-24 42 -90 165q-42 77 -92 140 q-139 179 -286 185q-190 8 -227 -112q-15 -53 -15 -96q0 -59 26 -102q31 -52 86 -52q9 0 18 1q4 -1 8 -1q18 0 46 41q2 7 2 15q0 11 -7.5 34t-7.5 33q0 14 20 18q16 3 27 -27q9 -24 9 -43q0 -77 -85 -123q-58 -32 -73 -36q-50 -17 -118 -16q-38 -56 -100 -56q-35 0 -61 18 q-76 50 -76 165q0 211 265 330q115 52 227 52q120 0 199 -64l1 16q-105 118 -272 295q-57 -6 -109 -57q-87 -86 -99 -95q-71 -48 -177 -48q-2 9 -2 20q0 23 17 66t17 65t-10 38q-82 0 -172 48q18 44 89 82q80 42 97 66q-76 63 -154 246q103 9 296 -93q2 19 2 52v50 q0 117 26 172q38 -12 82 -94q40 -74 70 -74q22 5 58 50t68 53q23 -68 22 -146q0 -34 -4 -67q32 -7 119 -12q70 -3 104 -25q-37 -111 -118 -164q-41 -28 -129 -51q-60 -17 -60 -45q297 -298 508 -629q15 144 116 559q-85 49 -143 136q-62 92 -62 186q0 74 43 134 q175 -70 196 -382q59 170 194 460q-36 -16 -83 -17q-74 0 -146 34q6 38 60 75q63 43 78 62q-78 36 -136 158q22 32 67 32q25 0 68 -11l61 -16q-10 79 -29 216q46 3 95 -36q13 -11 86 -73q30 12 74 68q47 60 71 75q26 -16 38 -117q14 -125 16 -133q14 -4 33 -4q13 0 40 3.5 t40 3.5q37 0 60 -26q1 -49 -35 -80q-24 -20 -71 -60q8 -13 79 -68q52 -41 52 -85q0 -8 -2 -17q-19 -5 -59 -1q-52 4 -60 4q-22 0 -35 -5q3 -10 23 -67q14 -38 14 -67q-14 -4 -27 -4q-32 0 -78 31q-61 40 -76 47q-17 -59 -64 -177q-68 57 -112 230q-48 -80 -107 -227 q-76 -194 -93 -228q41 8 142 63q86 45 137 45q70 0 136 -71q-67 -131 -251 -131q-50 0 -109 7q-76 10 -81 11q-31 -110 -126 -609q13 -33 38 -84q-1 99 41 184q26 52 108 166q49 -31 49 -108q0 -78 -50 -190q-40 -89 -85 -152q121 -216 152 -277q76 -148 122 -279 q8 56 41 174q32 114 39 167q-16 38 -31 73q-26 45 -65 45q-10 0 -22 -2q-75 22 -75 89q0 38 30 66t68 28q80 0 80 -89q0 -11 -1 -31.5t-1 -30.5q0 -65 43 -91q75 412 454 950q-30 75 -51 128q-34 87 -33 154q0 135 124 253q66 -104 65 -246q0 -94 -32 -171q23 37 105 143 q62 81 60 93q-12 35 -12 73q0 104 78 201q82 102 183 103q49 0 84 -30t35 -79q0 -100 -116 -198q-111 -93 -214 -98l-188 -254q113 51 212 52q162 0 234 -115q-63 -77 -205 -77q-72 0 -169 19l-120 23q-157 -249 -222 -368q-131 -243 -193 -455q67 100 249 215 q209 132 364 132q15 0 31 -1q141 252 296 252q35 0 69 -17q-22 -127 -80 -186q-37 -37 -106 -55q-57 -15 -63 -31q123 -47 190 -164q62 -109 63 -247q0 -112 -58 -187q-60 -80 -169 -92q-41 -4 -88 -4q-191 0 -179 49q5 19 36 19q23 0 66 -6.5t64 -7.5q146 -4 195 44 q75 74 75 183q0 15 -3 42q-34 270 -235 332q87 -65 87 -192q0 -102 -75 -142q-130 67 -130 185q0 53 37 179q-246 -31 -447 -187q-137 -106 -210 -226q8 -2 18 -2q20 0 58 12q46 15 57 18q35 80 105 80q68 0 77 -77q6 -43 -18.5 -78t-67.5 -35q-56 0 -102 68 q-63 -15 -145 -38q-76 -316 -102 -411q67 99 111 129q57 38 164 38q26 0 81 -1q-13 -223 -338 -250l11 -44h-88l-22 44q-15 5 -34 5q-29 0 -88.5 -16t-88.5 -16q-111 0 -194 160q121 25 210 25q130 0 180 -53q-2 11 -24 65q-92 55 -240 110q-131 49 -228 68l-61 -182 q-67 -144 -186 -144q-22 0 -45 4q-7 68 -7 104q0 80 47 123l166 119q-108 5 -200 5q-133 0 -232 -11q-15 -108 -88 -200q-76 -94 -178 -124q-16 37 -16 80q0 74 44 156q39 71 90 115q-142 23 -178 39q-76 35 -114 139zM94 857q72 -28 146 -28q85 0 145 36q-13 3 -29 3 t-46.5 -5t-47.5 -5q-34 0 -59 19q25 18 69 15q51 -4 71 4q-32 40 -101 40q-44 0 -88 -18q-57 -23 -60 -61zM122 1201q53 -116 131 -191q97 -96 204 -97q0 6 -83 66q-87 62 -102 101q35 -14 89 -55q58 -46 86 -59q-93 176 -325 235zM195 188q0 -38 15 -77q30 -73 83 -73 q15 0 31 9q-6 28 -40 98q-27 57 -27 99q0 75 74 176q-136 -98 -136 -232zM220 688q0 -17 11 -30q177 63 214 162q-24 3 -70.5 -39.5t-68.5 -43.5l64 74q-43 0 -96.5 -41t-53.5 -82zM305 258q0 -62 44.5 -112.5t107.5 -50.5q14 0 27 3q-98 88 -98 200q0 77 46 168 q-127 -99 -127 -208zM403 1337l4 -172q11 -139 61 -158q-29 114 -29 155q0 13 4 14q13 0 73 -149q7 73 -17 172q-33 126 -96 138zM548 1097q0 -18 1.5 -57.5t1.5 -58.5q101 106 101 230q0 39 -11 75q-93 -39 -93 -189zM609 979q0 -8 2 -17q22 8 83 49q50 35 84 35q8 0 18 -2 q-12 -22 -86 -58q-67 -34 -74 -56q147 0 227 156q-28 8 -62 9q-62 0 -120 -27q-72 -34 -72 -89zM1311 1357q0 -9 14 -12h95q58 2 80 38q-10 36 -58 36q-28 0 -76 -18q-55 -22 -55 -44zM1316 1589q0 -44 50.5 -81t94.5 -30q24 3 24 56q-55 60 -169 55zM1461 1662 q11 -31 24 -60q18 -36 50 -36q10 0 19 2q16 11 17 44q-1 31 -1 50q-32 82 -106 82zM1523 1457q0 -11 2 -22q15 -36 78 -52q60 26 60 75q0 10 -3 25q-10 46 -75 51q-62 -3 -62 -77zM1534 1244q19 -55 20 -58q17 -32 45 -36q36 85 36 97q0 9 -2 18q0 29 -22.5 50.5t-50.5 21.5 q-10 0 -18 -2zM1609 1618q0 -38 35 -52q73 -4 72 143q0 51 -13 75q-28 -20 -58 -70q-36 -56 -36 -96zM1648 1335q40 -95 124 -127q18 7 16 26q-7 42 -7 31q-9 31 -36 64q-32 39 -59 39q-24 0 -38 -33zM1687 1517q0 -28 55 -28q80 0 127 77q-40 22 -85 21q-56 0 -85 -41 q-12 -17 -12 -29zM1699 1422q47 -77 156 -76q14 0 28 1q0 29 -54 66q-52 35 -87 35q-31 0 -43 -26zM2347 1156q73 101 92 123q58 67 110 78q-42 -83 -160 -224q84 31 153 92q80 72 79 138q0 31 -17 57q-23 9 -46 10q-87 0 -155 -96q-64 -90 -56 -178z" />
<glyph unicode="&#xd4;" horiz-adv-x="2719" d="M12 1263q48 -45 115 -45q83 0 181 66q78 52 137 123h368q-160 -63 -208 -266q33 -37 73 -37q82 0 185 137q73 97 113 192q181 38 441 162q-79 -147 -233 -446q-99 32 -178 32q-134 0 -223 -95q72 -88 174 -88q79 0 183 52q-24 -42 -90 -166q-42 -77 -92 -141 q-139 -179 -286 -185q-190 -8 -227 113q-15 53 -15 95q0 59 26 102q31 52 86 53q9 0 18 -1q4 1 8 1q18 0 46 -40q2 -8 2 -17q0 -11 -7.5 -34t-7.5 -32q0 -14 20 -19q16 -3 27 27q9 24 9 43q0 77 -85 123q-58 32 -73 37q-50 18 -118 15q-38 56 -100 56q-35 0 -61 -17 q-76 -51 -76 -166q0 -211 265 -330q115 -51 227 -51q120 0 199 64l1 -16q-105 -119 -272 -296q-57 6 -109 58q-87 86 -99 94q-71 48 -177 48q-2 -9 -2 -19q0 -23 17 -66.5t17 -65.5q0 -20 -10 -37q-82 0 -172 -49q18 -44 89 -80q80 -42 97 -68q-76 -63 -154 -246 q103 -9 296 94q2 -20 2 -53v-50q0 -116 26 -172q38 12 82 94q40 74 70 74q22 -5 58 -49.5t68 -53.5q23 68 22 146q0 34 -4 67q32 8 119 13q70 3 104 24q-37 112 -118 164q-41 28 -129 52q-60 16 -60 44q297 298 508 629q15 -144 116 -559q-85 -49 -143 -136 q-62 -92 -62 -184q0 -74 43 -135q175 69 196 381q59 -170 194 -459q-36 17 -83 17q-74 0 -146 -35q6 -38 60 -74q63 -44 78 -63q-78 -36 -136 -158q22 -32 67 -32q25 0 68 12l61 15q-10 -78 -29 -216q46 -3 95 36q13 11 86 74q30 -12 74 -69q47 -60 71 -74q26 16 38 116 q14 125 16 133q14 4 33 4q13 0 40 -3.5t40 -3.5q37 0 60 27q1 49 -35 81q-24 19 -71 58q8 13 79 69q52 41 52 85q0 8 -2 16q-19 5 -59 2q-52 -5 -60 -5q-22 0 -35 6q3 9 23 67q14 38 14 67q-14 3 -27 3q-32 0 -78 -31q-61 -40 -76 -46q-17 58 -64 177q-68 -57 -112 -231 q-48 80 -107 227q-76 194 -93 229q41 -9 142 -64q86 -45 137 -45q70 0 136 72q-67 130 -251 130q-50 0 -109 -7q-76 -10 -81 -10q-31 110 -126 608q13 34 38 84q-1 -99 41 -183q26 -52 108 -166q49 32 49 107q0 78 -50 192q-40 88 -85 150q121 216 152 278q76 150 122 278 q8 -56 41 -174q32 -114 39 -167q-16 -37 -31 -73q-26 -45 -65 -45q-10 0 -22 2q-75 -22 -75 -89q0 -37 30 -65.5t68 -28.5q80 0 80 89q0 11 -1 32t-1 32q0 63 43 89q75 -412 454 -949q-30 -75 -51 -128q-34 -87 -33 -155q0 -134 124 -253q66 105 65 246q0 94 -32 171 q23 -37 105 -143q62 -80 60 -93q-12 -35 -12 -72q0 -103 78 -202q82 -102 183 -103q49 0 84 30t35 79q0 100 -116 199q-111 93 -214 97l-188 254q113 -51 212 -51q162 0 234 114q-63 78 -205 78q-72 0 -169 -19l-120 -24q-157 249 -222 368q-131 243 -193 456 q67 -100 249 -216q209 -132 364 -132q15 0 31 1q141 -251 296 -250q35 0 69 15q-22 127 -80 186q-37 37 -106 56q-57 15 -63 30q123 47 190 164q62 109 63 247q0 112 -58 187q-60 80 -169 92q-41 4 -88 5q-191 0 -179 -50q5 -19 36 -19q23 0 66 6.5t64 7.5q146 5 195 -44 q75 -74 75 -183q0 -15 -3 -42q-34 -270 -235 -331q87 63 87 192q0 102 -75 141q-130 -66 -130 -184q0 -53 37 -180q-246 32 -447 187q-137 106 -210 226q8 2 18 2q20 0 58 -12q46 -15 57 -18q35 -80 105 -79q68 0 77 77q6 42 -18.5 77t-67.5 35q-56 0 -102 -68 q-63 15 -145 38q-76 316 -102 411q67 -99 111 -129q57 -38 164 -38q26 0 81 1q-13 223 -338 250l11 45h-88l-22 -45q-15 -4 -34 -4q-29 0 -88.5 16t-88.5 16q-111 0 -194 -161q121 -25 210 -25q130 0 180 54q-2 -11 -24 -66q-92 -55 -240 -110q-131 -49 -228 -68l-61 182 q-67 144 -186 144q-22 0 -45 -4q-7 -68 -7 -104q0 -80 47 -123l166 -119q-108 -4 -200 -4q-133 0 -232 10q-15 108 -88 200q-76 94 -178 125q-16 -37 -16 -81q0 -74 44 -156q39 -71 90 -114q-142 -23 -178 -40q-76 -35 -114 -138zM94 221q72 28 146 28q85 0 145 -36 q-13 -2 -29 -2t-46.5 4.5t-47.5 4.5q-34 0 -59 -18q25 -17 69 -15q51 3 71 -5q-32 -40 -101 -40q-44 0 -88 19q-57 23 -60 60zM122 -123q53 116 131 193q97 95 204 95q0 -6 -83 -66q-87 -62 -102 -101q35 14 89 56q58 45 86 60q-93 -178 -325 -237zM195 890q0 39 15 78 q30 73 83 72q15 0 31 -9q-6 -28 -40 -98q-27 -56 -27 -98q0 -75 74 -177q-136 99 -136 232zM220 390q0 17 11 30q177 -62 214 -162q-24 -2 -70.5 40t-68.5 43l64 -74q-43 0 -96.5 41t-53.5 82zM305 820q0 62 44.5 112.5t107.5 50.5q14 0 27 -3q-98 -87 -98 -200 q0 -77 46 -167q-127 98 -127 207zM403 -259l4 172q11 139 61 159q-29 -114 -29 -156q0 -13 4 -13q13 0 73 148q7 -73 -17 -172q-33 -126 -96 -138zM548 -18q0 19 1.5 57.5t1.5 57.5q101 -105 101 -230q0 -39 -11 -75q-93 39 -93 190zM609 99q0 9 2 18q22 -8 83 -49 q50 -35 84 -35q8 0 18 1q-12 22 -86 58q-67 34 -74 56q147 0 227 -155q-28 -9 -62 -9q-62 0 -120 26q-72 34 -72 89zM1311 -279q0 10 14 13h95q58 -1 80 -39q-10 -36 -58 -36q-28 0 -76 18q-55 22 -55 44zM1316 -511q0 44 50.5 81t94.5 31q24 -3 24 -57q-55 -60 -169 -55z M1461 -584q11 31 24 61q18 36 50 36q10 0 19 -2q16 -11 17 -45q-1 -31 -1 -50q-32 -81 -106 -81zM1523 -379q0 11 2 23q15 36 78 51q60 -26 60 -75q0 -10 -3 -24q-10 -47 -75 -52q-62 3 -62 77zM1534 -165q19 54 20 57q17 32 45 36q36 -85 36 -97q0 -8 -2 -17 q0 -29 -22.5 -51t-50.5 -22q-10 0 -18 2zM1609 -540q0 38 35 53q73 5 72 -144q0 -51 -13 -75q-28 22 -58 70q-36 56 -36 96zM1648 -257q40 95 124 128q18 -8 16 -27q-7 -42 -7 -30q-9 -31 -36 -65q-32 -39 -59 -39q-24 0 -38 33zM1687 -437q0 28 55 27q80 0 127 -77 q-40 -22 -85 -22q-56 0 -85 41q-12 17 -12 31zM1699 -344q47 77 156 77q14 0 28 -1q0 -29 -53 -65.5t-88 -36.5q-31 0 -43 26zM2347 -78q73 -100 92 -123q58 -67 110 -78q-42 83 -160 225q84 -31 153 -92q80 -72 79 -139q0 -31 -17 -57q-23 -9 -46 -9q-87 0 -155 95 q-64 90 -56 178z" />
<glyph unicode="&#xd8;" horiz-adv-x="395" d="M-25 1102v125h459v-125h-459z" />
<glyph unicode="&#xda;" horiz-adv-x="931" d="M172 954q0 50 23 99q63 135 215 135q50 0 98 -23q133 -62 133 -215q0 -53 -20 -98q-60 -133 -215 -133q-53 0 -99 20q-135 60 -135 215zM178 309q0 50 23 99q63 135 215 135q50 0 98 -23q133 -62 133 -215q0 -53 -20 -98q-60 -133 -215 -133q-53 0 -99 20 q-135 60 -135 215zM268 952q0 -56 39.5 -95.5t95.5 -39.5q92 0 129 76q12 25 13 59q0 56 -40 98t-95 42q-57 0 -99.5 -41.5t-42.5 -98.5zM274 307q0 -56 39.5 -95.5t96.5 -39.5q92 0 129 76q12 25 12 59q0 56 -40 97.5t-95 41.5q-57 0 -99.5 -41t-42.5 -98z" />
<glyph unicode="&#xe5;" horiz-adv-x="1431" d="M-256 1688l29 108q169 6 297 -80q93 -62 202 -178q29 -31 76 -57q54 -32 88 -29q36 3 105 53q210 153 428 291q166 104 389 100q202 -4 361 -99q173 -102 241 -281q14 -38 14 -68q0 -51 -41 -51q-33 0 -63 65q-73 155 -205.5 239t-302.5 83q-120 -1 -191 -22 q-61 -18 -174 -81q-75 -42 -206 -141q-138 -104 -209 -149q-87 -55 -156 -56q-69 0 -150 56q-46 31 -132 113q-84 80 -132 112q-121 78 -268 72z" />
<glyph unicode="&#xe6;" d="M-733 -246q0 -49 34.5 -84t84.5 -35q49 0 83.5 35t34.5 84t-34.5 84t-83.5 35t-84 -35t-35 -84z" />
<glyph unicode="&#xe7;" horiz-adv-x="59" d="M-836 -342q0 -39 60 -39h61q28 -152 53 -205q53 -121 232 -121q121 0 186 86q43 57 43 125v435h-94v-230h-336v60q0 37 -35 36q-12 0 -30.5 -5t-37 -14t-33.5 -19.5t-24 -20.5q-45 -53 -45 -88zM-627 -381h332v-100q0 -137 -137 -137q-72 0 -98 14q-31 18 -60 78 q-27 88 -37 145z" />
<glyph unicode="&#xfc;" d="M-817 -565v-82q98 -35 186 -53.5t166 -16.5q158 4 348 70v82q-178 -70 -348 -70q-164 0 -352 70z" />
<glyph unicode="&#xff;" horiz-adv-x="1740" d="M4 -23v1289h1718v-1289h-1718zM45 760h317q0 -98 -38 -248q-8 25 -27 63q-45 68 -92 68q-17 0 -47 -10q-58 -19 -87 -114q-22 -69 -22 -148q0 -112 39 -185q34 -63 76 -63q72 0 102 36q7 8 58 105q27 -46 32 -139q4 -63 5 -66q5 -10 49 -10q31 0 34 2q0 75 -24 189 q-9 44 -29 114q-10 38 -10 47q47 154 61 359h39v110h-436v-110zM125 371q0 156 74 155q34 0 68 -51q32 -48 32 -84q-12 -37 -82 -147q-20 -4 -33 -4q-47 0 -57 86q-2 18 -2 45zM500 166q0 117 57 117t57 -117t-57 -117t-57 117zM659 760h58v-709h76v709q88 2 92 0 q29 -50 18 -219q-7 -122 -39 -205q-16 -43 -16 -45q0 -31 41 -84q59 -78 125 -78q30 0 62 19t40 47v-144h80v709h348v-242h-145v60q0 57 -29 57q-26 0 -57 -42q-28 -37 -35 -67t-6 -75q1 -49 18 -50h51q0 -119 13 -178q18 -90 71 -131q60 -47 91 -47q47 0 98 78q23 34 20 78 q0 10 -4 12q-5 -6 -33 -37q-39 -43 -65 -43q-13 0 -33 6q-35 10 -59 92q-14 47 -15 170h205v359h53v110h-890v121q1 105 51 99q51 -7 43 -142h71q0 267 -122 267q-54 0 -88 -60q-31 -54 -31 -127v-158h-58v-110zM934 317q0 5 9 26t11 30q8 49 19 86h143v-166 q-45 -72 -84 -72q-44 0 -86 68q-12 19 -12 28zM967 760h149v-191h-137q2 53 -12 191zM1047 1112q-8 -72 16 -129q18 -44 39 -49q2 24 -5 67q-7 49 -7 70q0 74 49 74q36 0 47 -74q2 -13 2 -33t-6 -54q-4 -20 -4 -34q0 -10 2 -16q34 9 46 79q10 51 5 99q-10 111 -92 111 q-40 0 -68 -41q-20 -31 -24 -70z" />
<glyph unicode="&#x152;" horiz-adv-x="2719" d="M20 186q17 -27 117 -39q125 -14 133 -16q4 -14 4 -33q0 -13 -3.5 -39.5t-3.5 -40.5q0 -37 27 -59q49 -1 81 35q19 24 58 72q13 -9 69 -80q41 -52 85 -53q8 0 16 2q5 20 1 60q-4 52 -4 59q0 23 6 36q9 -4 67 -23q38 -13 67 -14q3 13 3 27q0 32 -30 78q-40 61 -46 75 q58 17 176 65q-57 68 -231 112q80 48 228 106q194 77 228 93q-9 -41 -63 -141q-45 -86 -46 -137q0 -70 72 -136q130 67 130 250q0 50 -7 110q-10 76 -10 82q110 30 608 125q34 -13 84 -38q-99 1 -183 -41q-52 -25 -166 -108q32 -50 107 -50q78 0 192 52q88 39 150 85 q216 -122 278 -153q150 -76 278 -123q-56 -8 -174 -41q-114 -32 -167 -39q-37 16 -72 32q-45 26 -45 64q0 10 2 23q-22 75 -89 75q-37 0 -66 -30.5t-29 -68.5q0 -80 90 -79q11 0 31.5 1t31.5 1q63 0 89 -43q-412 -75 -949 -454q-75 30 -128 50q-87 34 -155 34 q-134 0 -253 -124q104 -66 246 -66q94 0 171 32q-37 -23 -142 -104q-80 -62 -93 -61q-35 12 -73 13q-103 0 -202 -78q-102 -82 -102 -183q0 -49 29.5 -84t78.5 -35q100 0 199 115q93 111 97 214l254 189q-51 -112 -51 -212q0 -162 115 -235q77 63 76 205q0 72 -18 169 l-24 121q249 157 368 221q243 131 456 194q-100 -67 -215 -249q-132 -209 -132 -365q0 -15 1 -30q-251 -141 -251 -295q0 -36 15 -71q127 22 186 81q37 37 56 105q15 57 30 64q47 -123 164 -191q109 -61 247 -61q112 0 187 56q80 60 93 169q4 41 4 88q0 191 -49 180 q-19 -5 -20 -36q0 -23 6 -65q7 -45 8 -64q4 -147 -44 -197q-74 -75 -183 -75q-15 0 -42 4q-270 33 -331 235q63 -87 192 -87q102 0 141 75q-67 131 -184 131q-53 0 -179 -37q32 245 186 445q106 137 226 211q2 -9 2 -18q0 -20 -12 -59q-15 -46 -17 -56q-80 -36 -80 -105 q0 -68 77 -77q43 -6 77.5 18.5t34.5 67.5q0 56 -67 101q15 63 38 146q316 76 410 102q-99 -67 -129 -112q-38 -56 -38 -163q0 -26 1 -81q223 13 250 338l45 -12v88l-45 23q-4 15 -4 34q0 29 16 88t16 89q0 112 -161 193q-25 -121 -25 -210q0 -130 54 -180q-11 2 -66 25 q-55 92 -109 239q-49 131 -69 229l182 60q144 67 145 187q0 22 -4 45q-68 7 -105 7q-80 0 -123 -46l-119 -167q-4 108 -4 200q0 133 11 232q108 15 201 89.5t123 175.5q-38 17 -81 18q-74 0 -155 -45q-68 -37 -115 -90q-23 141 -40 178q-35 76 -138 114q-45 -48 -45 -115 q0 -82 66 -182q52 -78 123 -137v-368q-63 160 -266 208q-37 -33 -37 -72q0 -82 137 -185q97 -73 192 -113q38 -181 163 -442q-147 80 -447 234q32 99 32 178q0 134 -94 222q-88 -72 -88 -174q0 -79 50 -182q-41 24 -165 90q-77 42 -140 91q-179 139 -186 287q-8 190 113 226 q53 15 95 15q59 0 103 -25q52 -31 52 -86q0 -9 -1 -18q1 -5 1 -9q0 -18 -40 -46q-8 -2 -17 -2q-11 0 -34 7.5t-32 7.5q-14 0 -19 -18q-3 -17 27 -29q24 -8 43 -8q77 0 123 84q32 58 37 75q18 49 15 117q56 38 57 100q0 35 -18 60q-51 76 -166 76q-211 0 -329 -264 q-51 -115 -52 -227q0 -120 64 -199l-16 -1q-119 106 -295 271q6 58 57 110q86 87 94 98q48 71 48 177q-9 2 -19 2q-23 0 -66.5 -16.5t-64.5 -16.5q-20 0 -38 10q0 82 -48 172q-44 -17 -81 -89q-42 -80 -68 -97q-63 76 -246 154q-9 -104 95 -297q-20 -2 -54 -2h-50 q-117 0 -172 -25q12 -38 94 -82q74 -40 74 -70q-5 -22 -49.5 -58t-52.5 -68q68 -23 145 -23q34 0 68 6q8 -32 12 -120q3 -70 25 -105q112 37 163 118q28 41 53 130q16 59 44 60q298 -297 628 -508q-144 -15 -559 -116q-49 85 -136 143q-92 61 -184 62q-75 0 -134 -43 q69 -175 381 -197q-170 -59 -460 -193q16 36 16 83q0 74 -34 146q-38 -6 -73 -60q-44 -63 -64 -78q-36 78 -158 136q-32 -22 -31 -67q0 -26 11 -68l15 -62q-78 10 -216 30q-3 -45 36 -94q11 -14 74 -87q-12 -29 -69 -74q-60 -47 -75 -71zM115 199q20 27 69 57q56 36 97 36 q38 0 52 -35q5 -73 -144 -73q-50 1 -74 15zM156 436l81 3q31 -11 60 -23q36 -18 36 -50q0 -10 -2 -20q-11 -16 -44 -16q-31 1 -50 1q-81 31 -81 105zM309 585q44 0 81 -51t31 -95q-3 -24 -56 -23q-61 55 -56 169zM311 117q0 56 41 85q17 12 31 12q27 0 27 -55 q0 -80 -77 -127q-22 40 -22 85zM365 315q3 62 76 63q11 0 23 -2q36 -15 51 -78q-26 -60 -75 -60q-10 0 -24 3q-46 9 -51 74zM451 159q-1 31 25 43q77 -47 77 -157q0 -14 -1 -28q-29 0 -65 53.5t-36 88.5zM469 -657q0 87 95 154q90 65 178 58q-100 -74 -122 -94 q-67 -57 -78 -109q83 42 224 160q-31 -84 -92 -152q-72 -81 -138 -81q-31 0 -58 18q-9 23 -9 46zM479 459q0 29 19 76q22 55 44 55q9 0 12 -13v-97q-1 -58 -39 -80q-36 10 -36 59zM530 215q0 24 33 38q95 -40 128 -124q-8 -18 -26 -15q-42 6 -31 6q-31 9 -65 37 q-39 31 -39 58zM561 341q0 9 2 17l92 9q54 -19 58 -21q32 -16 36 -45q-85 -36 -98 -36q-8 0 -17 2q-29 0 -51 22.5t-22 51.5zM561 1497l172 -3q139 -11 159 -61q-114 29 -156 28q-13 0 -13 -4q0 -13 148 -73q-73 -6 -172 19q-126 31 -138 94zM612 1260q39 94 190 94 q19 0 58 -2t58 -2q-106 -101 -231 -102q-39 0 -75 12zM697 1780q116 -54 193 -132q95 -96 95 -204q-6 0 -65 83q-62 87 -102 101q14 -35 56 -89q45 -58 60 -86q-178 94 -237 327zM804 1100q0 62 26 120q34 72 90 71q8 0 17 -2q-8 -22 -49 -83q-35 -50 -35 -83q0 -9 1 -18 q22 12 58 86q34 67 57 74q0 -147 -156 -227q-9 27 -9 62zM963 1659q0 44 18 89q23 55 60 58q28 -72 28 -145q0 -85 -36 -145q-2 13 -2 28q0 16 4.5 47.5t4.5 46.5q0 34 -18 60q-17 -25 -14 -70q3 -51 -6 -70q-40 32 -39 101zM1078 1455q-2 24 40 70.5t43 68.5l-74 -63 q0 43 41 96t82 53q17 0 30 -10q-62 -178 -162 -215zM1434 1468q98 127 206 127q62 0 112 -43q51 -46 51 -108q0 -14 -3 -28q-87 98 -199 98q-77 0 -167 -46zM1479 1570q98 137 231 137q39 0 78 -16q73 -30 73 -83q0 -15 -10 -31q-28 6 -98 40q-56 27 -98 27q-75 0 -176 -74z " />
<glyph unicode="&#x153;" d="M-801 -547q0 -25 84 -80q119 -78 242 -78q113 0 182 52q82 57 80 164q-4 104 -143 186q73 60 106 115q10 23 22.5 54.5t22.5 74.5h-96q-55 -195 -178 -205q-45 -2 -150 18q-31 6 -49 6q-92 0 -92 -53q0 -70 80 -69q25 0 47 6q68 20 127 14q80 -8 145 -51q66 -47 66 -107 q0 -84 -113 -114q-47 -12 -84 -13q-61 0 -141 35q-23 10 -38 18.5t-26 14.5q-51 27 -73 27q-12 0 -19 -7q-2 -2 -2 -8z" />
<glyph unicode="&#x2c6;" d="M-369 1509q0 -53 40 -93t93 -40t93.5 40t40.5 93t-40.5 93t-93.5 40t-93 -39.5t-40 -93.5z" />
<glyph unicode="&#x2dc;" d="M-807 -440q0 -193 203 -260v86q-115 47 -115 172q0 49 39 94q55 68 172 67q113 0 172 -67q39 -45 39 -94q0 -125 -115 -172v-86q201 68 203 260q0 86 -63 155q-74 82 -191 86v138h-92v-138q-119 -4 -188 -86q-66 -74 -64 -155z" />
<glyph unicode="&#x2000;" horiz-adv-x="950" />
<glyph unicode="&#x2001;" horiz-adv-x="1901" />
<glyph unicode="&#x2002;" horiz-adv-x="950" />
<glyph unicode="&#x2003;" horiz-adv-x="1901" />
<glyph unicode="&#x2004;" horiz-adv-x="633" />
<glyph unicode="&#x2005;" horiz-adv-x="475" />
<glyph unicode="&#x2006;" horiz-adv-x="316" />
<glyph unicode="&#x2007;" horiz-adv-x="316" />
<glyph unicode="&#x2008;" horiz-adv-x="237" />
<glyph unicode="&#x2009;" horiz-adv-x="380" />
<glyph unicode="&#x200a;" horiz-adv-x="105" />
<glyph unicode="&#x2010;" horiz-adv-x="1073" d="M135 551v125h791v-125h-791z" />
<glyph unicode="&#x2011;" horiz-adv-x="1073" d="M135 551v125h791v-125h-791z" />
<glyph unicode="&#x2012;" horiz-adv-x="1073" d="M135 551v125h791v-125h-791z" />
<glyph unicode="&#x2013;" horiz-adv-x="1064" d="M115 557v117h831v-117h-831z" />
<glyph unicode="&#x2014;" horiz-adv-x="1843" d="M102 555v121h1639v-121h-1639z" />
<glyph unicode="&#x2018;" horiz-adv-x="866" d="M174 1255q0 101 100 207q83 88 168 127l19 -43q-108 -67 -152 -147q-20 -37 -24 -78q-2 -20 -6 -64q16 -18 73 -20q78 -2 99 -8q48 -13 53 -68q5 -56 -37 -90q-38 -29 -96 -29q-68 0 -119 37q-78 55 -78 176z" />
<glyph unicode="&#x2019;" horiz-adv-x="825" d="M297 1470q-5 56 37 91q38 29 96 28q68 0 119 -37q78 -55 78 -176q0 -101 -101 -207q-83 -88 -168 -127l-18 43q108 67 152 148q20 37 24 78q2 20 6 63q-17 19 -73 21q-76 1 -99 8q-48 15 -53 67z" />
<glyph unicode="&#x201a;" horiz-adv-x="2719" d="M69 -796l266 120q158 75 257 147q129 92 202 207q40 -58 46 -215q199 33 306 206q75 124 127 374q70 337 87 390q17 -53 87 -390q52 -250 127 -374q108 -173 306 -206q2 45 7 84q12 91 39 131q73 -116 202 -207q99 -72 257 -147q133 -59 266 -120q-139 597 -493 783 l262 49q-66 205 -244 306q-124 71 -366 115q-303 55 -374 79q70 24 374 79q241 45 366 117q178 102 244 307l-262 50q354 185 493 782l-266 -120q-158 -75 -257 -146q-129 -92 -202 -208q-40 58 -46 215q-199 -33 -306 -206q-75 -124 -127 -374q-70 -337 -87 -390 q-17 53 -87 390q-52 250 -127 374q-108 173 -306 206q-2 -45 -7 -84q-12 -91 -39 -131q-73 116 -202 208q-99 72 -257 146q-133 59 -266 120q139 -597 493 -782l-262 -50q66 -205 244 -306q124 -71 365 -115q303 -55 375 -78q-70 -24 -375 -80q-241 -45 -365 -117 q-178 -102 -244 -307l262 -49q-354 -185 -493 -783zM152 526q0 144 187 145q190 0 501 -131q-329 -155 -518 -155q-170 0 -170 141zM1222 -488q0 189 132 500q154 -329 153 -518q0 -170 -141 -170q-144 0 -144 188zM1222 1554q0 -189 132 -501q154 329 153 518 q0 171 -141 171q-144 0 -144 -188zM1880 540q329 -155 518 -155q170 0 170 141q0 144 -187 145q-190 0 -501 -131z" />
<glyph unicode="&#x201c;" horiz-adv-x="1280" d="M113 1255q0 101 100 207q83 88 168 127l18 -43q-108 -67 -151 -147q-20 -37 -25 -78q-2 -20 -6 -64q16 -18 74 -20q78 -2 98 -8q48 -13 53 -68q5 -56 -36 -90q-38 -29 -97 -29q-68 0 -119 37q-77 55 -77 176zM645 1255q0 101 100 207q83 88 168 127l19 -43 q-108 -67 -152 -147q-20 -37 -24 -78q-2 -20 -6 -64q16 -18 73 -20q78 -2 99 -8q48 -13 53 -68q5 -56 -37 -90q-38 -29 -96 -29q-68 0 -119 37q-78 55 -78 176z" />
<glyph unicode="&#x201d;" horiz-adv-x="1259" d="M297 1470q-5 56 37 91q38 29 96 28q68 0 119 -37q78 -55 78 -176q0 -101 -101 -207q-83 -88 -168 -127l-18 43q108 67 152 148q20 37 24 78q2 20 6 63q-17 19 -73 21q-76 1 -99 8q-48 15 -53 67zM829 1470q-5 56 37 91q38 29 97 28q68 0 118 -37q78 -55 78 -176 q0 -101 -100 -207q-83 -88 -168 -127l-19 43q108 67 152 148q20 37 25 78q2 20 6 63q-17 19 -74 21q-76 1 -98 8q-48 15 -54 67z" />
<glyph unicode="&#x2022;" horiz-adv-x="880" d="M96 610l348 348l349 -348l-349 -348z" />
<glyph unicode="&#x2026;" horiz-adv-x="2123" d="M233 -111q0 39 28 67t67 28q38 0 65 -28.5t27 -66.5q0 -37 -27.5 -64.5t-64.5 -27.5q-38 0 -66.5 27t-28.5 65zM961 -111q0 39 27.5 67t66.5 28q38 0 65 -28.5t27 -66.5q0 -37 -27.5 -64.5t-64.5 -27.5q-38 0 -66 27t-28 65zM1688 -111q0 39 27.5 67t66.5 28 q38 0 65 -28.5t27 -66.5q0 -37 -27.5 -64.5t-64.5 -27.5q-38 0 -66 27t-28 65z" />
<glyph unicode="&#x202f;" horiz-adv-x="380" />
<glyph unicode="&#x2039;" horiz-adv-x="1187" d="M68 551v125h1022v-125h-1022zM492 236q0 36 24 61t59 25q37 0 62 -25t25 -61t-25.5 -60t-61.5 -24q-35 0 -59 24.5t-24 59.5zM492 987q0 36 24 61t59 25q37 0 62 -24.5t25 -61.5q0 -36 -25.5 -60t-61.5 -24q-35 0 -59 24.5t-24 59.5z" />
<glyph unicode="&#x205f;" horiz-adv-x="475" />
<glyph unicode="&#x25fc;" horiz-adv-x="1228" d="M0 0v1229h1229v-1229h-1229z" />
</font>
</defs>
</svg>
